<?xml version="1.0" standalone="no"?>
<!DOCTYPE svg PUBLIC "-//W3C//DTD SVG 20010904//EN"
 "http://www.w3.org/TR/2001/REC-SVG-20010904/DTD/svg10.dtd">
<svg version="1.0" xmlns="http://www.w3.org/2000/svg"
 width="16.000000pt" height="16.000000pt" viewBox="0 0 16.000000 16.000000"
 preserveAspectRatio="xMidYMid meet">
<metadata>
Created by potrace 1.11, written by Peter Selinger 2001-2013
</metadata>
<g transform="translate(0.000000,16.000000) scale(0.001784,-0.001784)"
fill="#000000" stroke="none">
<path d="M4745 8930 c-137 -24 -244 -54 -333 -95 -41 -20 -77 -33 -79 -31 -3
2 1 14 7 26 10 19 9 21 -7 16 -15 -5 -278 -65 -308 -70 -84 -16 -213 -51 -209
-57 3 -5 35 -18 72 -29 117 -37 244 -20 357 45 25 15 45 22 45 17 0 -6 -28
-39 -62 -74 -51 -52 -72 -66 -113 -76 -71 -18 -170 -17 -245 3 -169 43 -241
86 -296 181 -15 25 -30 42 -34 37 -11 -11 -31 -248 -34 -380 0 -29 -2 -31 -18
-20 -243 173 -319 205 -413 171 -22 -8 -80 -17 -130 -19 -210 -10 -317 -42
-406 -122 -52 -47 -85 -113 -115 -231 -37 -144 -43 -195 -60 -460 -3 -51 -7
-101 -9 -110 -1 -9 -6 -42 -9 -73 -4 -31 -9 -67 -11 -80 -3 -13 -7 -49 -11
-79 -3 -30 -9 -73 -14 -95 -4 -22 -11 -69 -15 -105 -4 -36 -9 -72 -10 -80 -2
-9 -6 -47 -9 -85 -4 -39 -8 -81 -11 -95 -2 -14 -7 -56 -10 -95 -6 -72 -11
-123 -20 -210 -19 -189 -24 -424 -11 -545 12 -110 15 -134 21 -175 4 -22 8
-51 10 -65 8 -57 19 -125 20 -130 1 -3 5 -23 9 -45 21 -109 75 -235 283 -665
324 -668 368 -784 366 -980 0 -52 -3 -108 -6 -123 -6 -27 -4 -28 26 -23 18 3
57 8 87 12 82 10 93 18 86 64 -3 21 -8 49 -10 62 -3 12 -8 34 -10 48 -2 14 -7
41 -10 60 -18 104 -44 268 -51 320 -3 25 -8 56 -10 70 -13 76 -19 215 -20 465
0 365 11 533 51 770 9 50 18 104 21 120 2 17 16 75 29 130 14 55 27 108 29
119 7 30 105 314 131 374 26 64 32 58 8 -9 -21 -61 -51 -166 -80 -284 -13 -55
-27 -111 -31 -125 -3 -14 -7 -32 -9 -40 -4 -21 -17 -83 -20 -95 -1 -5 -5 -30
-8 -55 -4 -25 -9 -52 -11 -60 -3 -8 -7 -31 -9 -50 -15 -115 -18 -137 -21 -160
-2 -14 -7 -54 -10 -90 -3 -36 -8 -83 -10 -105 -7 -71 -17 -317 -18 -430 0
-113 11 -427 17 -480 2 -17 7 -64 11 -105 3 -41 10 -109 15 -150 5 -41 12 -97
15 -124 3 -27 7 -51 9 -55 2 -3 7 -35 10 -70 5 -48 13 -71 29 -87 13 -12 42
-60 66 -106 133 -253 153 -290 210 -378 41 -64 170 -232 185 -242 6 -4 3 -10
-9 -14 -11 -4 -78 -34 -149 -66 -71 -32 -135 -58 -142 -58 -7 0 -53 16 -101
36 -78 31 -188 73 -393 151 -214 80 -298 105 -364 108 -38 2 -77 0 -87 -5 -15
-8 -31 11 -109 126 -156 233 -260 473 -330 769 -31 130 -37 156 -46 225 -3 25
-8 53 -9 62 -2 9 -6 45 -10 80 -3 35 -8 81 -11 103 -3 22 -7 826 -9 1788 l-4
1747 47 1 c26 1 131 1 234 1 l187 0 6 32 c21 96 125 240 205 281 17 9 30 17
30 18 0 2 -1020 1 -1031 -2 -7 -1 -4 -3929 3 -3956 3 -11 9 -51 12 -90 4 -38
9 -77 11 -85 2 -8 7 -35 10 -60 68 -514 279 -990 604 -1358 93 -105 95 -118
29 -219 -105 -160 -138 -279 -133 -473 4 -163 36 -263 129 -403 36 -54 122
-144 130 -136 3 2 1 20 -3 39 -14 63 -11 320 5 405 41 220 149 453 333 714
l66 93 19 -43 c18 -43 18 -44 -3 -104 -60 -166 -111 -329 -126 -405 -16 -79
-22 -221 -11 -259 3 -9 8 -38 11 -66 3 -27 13 -79 21 -115 9 -36 18 -75 20
-88 18 -94 84 -179 166 -217 52 -24 128 -42 128 -31 0 4 -27 57 -59 119 -65
122 -123 262 -144 347 -12 44 -12 64 -2 107 7 29 17 58 22 65 6 7 30 49 54 93
23 44 53 98 65 120 13 22 32 58 44 80 37 67 154 237 167 242 7 3 34 -8 60 -24
27 -17 69 -42 94 -56 61 -35 67 -44 74 -108 8 -71 9 -587 2 -617 -9 -36 -101
-201 -171 -306 -36 -53 -60 -96 -54 -96 19 0 132 31 186 51 66 24 125 54 177
89 30 20 46 25 61 19 34 -12 34 -21 3 -67 -16 -23 -29 -44 -29 -46 0 -2 -18
-33 -40 -67 -22 -35 -49 -80 -60 -99 -28 -48 -44 -74 -148 -243 -51 -81 -92
-155 -92 -165 0 -21 172 -322 256 -448 92 -138 204 -238 248 -221 8 3 67 109
129 234 63 125 138 272 166 325 28 54 74 142 102 195 144 275 184 350 197 368
13 19 14 19 7 -5 -13 -46 -77 -214 -108 -285 -34 -76 -172 -350 -203 -402 -16
-28 -76 -130 -154 -268 l-23 -40 34 40 c19 21 41 48 49 58 14 17 15 -5 15
-220 l-1 -238 26 -27 c14 -15 39 -29 56 -31 28 -4 32 -1 44 32 17 49 118 311
129 336 5 11 27 66 47 122 22 57 42 99 47 94 10 -10 -30 -179 -69 -297 -30
-89 -87 -206 -133 -274 l-30 -45 82 -41 c45 -23 91 -44 102 -48 21 -6 22 -4
55 82 7 17 16 32 21 32 4 0 9 -33 11 -73 l3 -72 65 -23 c174 -60 331 6 460
195 29 43 55 80 56 81 2 4 80 -77 143 -148 26 -29 33 -32 41 -20 5 8 17 26 27
39 70 93 157 262 197 383 32 98 60 231 71 338 4 30 8 73 10 95 10 91 4 317
-10 422 -3 18 -3 33 0 33 3 0 44 -12 92 -26 211 -62 233 -64 188 -16 -64 68
-202 297 -211 349 -2 15 -7 39 -9 53 -14 68 -3 573 13 611 10 26 56 69 74 69
4 0 37 18 73 39 l65 39 28 -36 c62 -80 229 -347 287 -460 82 -160 60 -277
-114 -602 -40 -74 -41 -75 -18 -78 64 -8 198 73 234 141 42 83 87 324 86 467
0 87 -6 130 -37 250 -20 80 -39 152 -42 161 -3 12 11 27 47 50 60 38 50 45
128 -86 72 -122 146 -288 166 -375 2 -8 11 -49 21 -90 19 -77 26 -321 12 -405
l-6 -40 40 45 c136 152 211 332 211 505 -1 194 -30 304 -121 449 -40 64 -70
125 -93 190 l-14 39 60 51 c232 199 463 473 590 701 130 232 255 572 290 785
3 19 7 46 10 60 6 31 12 70 20 135 4 28 8 63 10 78 3 16 7 63 11 105 3 41 8
85 11 96 4 12 8 891 10 1954 l5 1932 -134 0 c-132 1 -499 6 -925 14 -123 2
-223 0 -223 -5 0 -4 25 -36 54 -69 59 -66 110 -139 146 -208 12 -23 25 -44 29
-46 20 -13 156 -19 416 -20 l290 -2 0 -1669 c0 -1484 -4 -1877 -19 -1965 -3
-14 -7 -52 -11 -85 -4 -33 -13 -94 -20 -135 -8 -41 -16 -86 -19 -100 -39 -220
-144 -501 -265 -714 -122 -214 -371 -500 -482 -554 -24 -12 -64 -23 -89 -25
-117 -11 -577 -178 -752 -273 -38 -20 -72 -17 -136 12 -31 14 -85 37 -119 51
-47 19 -64 31 -71 51 -13 37 -5 243 13 347 3 17 39 97 80 178 152 299 247 549
300 787 20 89 36 167 39 193 3 18 12 69 20 114 8 45 18 101 21 125 3 24 8 54
10 68 4 25 7 53 21 160 3 30 8 62 9 70 2 8 6 44 9 80 4 36 8 74 10 85 2 11 7
54 11 95 10 98 10 98 17 106 10 9 -5 -403 -17 -486 -2 -14 -6 -54 -9 -90 -4
-36 -8 -76 -10 -90 -2 -14 -7 -46 -10 -71 -8 -58 -15 -96 -23 -134 -3 -16 -7
-39 -9 -50 -5 -45 -57 -246 -86 -340 -17 -55 -32 -105 -34 -110 -3 -19 -116
-290 -126 -305 -20 -29 48 47 147 165 55 65 105 123 110 129 19 21 191 232
261 321 126 160 191 263 244 387 17 40 35 82 40 93 29 61 244 675 256 730 1 6
19 64 38 130 20 66 45 149 56 185 22 73 96 361 105 403 12 62 16 81 20 86 3 6
49 255 60 326 3 22 7 51 10 65 2 14 6 65 10 115 4 49 10 110 14 136 17 107 -9
255 -56 317 -44 59 -97 67 -219 32 -37 -11 -69 -18 -71 -16 -2 2 -5 12 -7 22
-2 11 -9 39 -16 63 -11 43 -11 44 22 72 18 15 36 28 40 29 10 0 81 99 96 133
7 15 12 38 12 50 -1 15 -9 6 -27 -31 -68 -135 -181 -200 -393 -227 -30 -4 -64
-9 -75 -12 -54 -11 -207 -4 -285 13 -14 3 -34 7 -45 9 -49 11 -155 61 -218
103 -70 46 -184 157 -367 353 -147 158 -199 206 -246 229 -59 29 -123 26 -196
-10 -34 -17 -63 -29 -65 -26 -9 9 101 96 140 109 55 19 144 14 200 -11 58 -26
171 -123 415 -357 241 -231 404 -293 764 -289 93 1 128 5 181 24 79 28 152 88
197 162 29 47 32 58 27 108 -9 99 -115 356 -218 528 -140 233 -327 429 -520
543 -110 66 -303 127 -454 144 -33 4 -69 9 -80 12 -11 2 -108 6 -215 7 -150 3
-218 -1 -295 -14z m753 -186 c45 -15 81 -28 79 -30 -1 -2 -66 9 -142 25 -80
16 -129 30 -115 32 43 8 92 0 178 -27z m-1182 -179 c-91 -86 -168 -134 -242
-154 -52 -14 -180 -20 -214 -10 -20 6 -16 7 20 9 201 7 266 32 419 161 51 43
96 79 100 79 3 -1 -34 -39 -83 -85z m832 -52 c12 -3 22 -9 22 -14 0 -9 -39 2
-174 50 -49 17 -91 31 -93 31 -1 0 -3 4 -3 10 0 5 51 -9 113 -31 61 -23 122
-43 135 -46z m389 -44 c73 -30 186 -99 178 -108 -3 -2 -11 2 -20 9 -8 7 -73
42 -143 77 -136 68 -139 73 -15 22z m-2407 -152 c-3 -3 -54 -15 -115 -27 -60
-11 -121 -23 -135 -26 -53 -11 27 26 87 40 57 12 172 22 163 13z m2539 -266
c17 -12 36 -32 42 -43 l11 -21 -28 20 c-16 11 -68 41 -116 67 -49 26 -88 49
-88 51 0 8 152 -55 179 -74z m470 -3 c30 -30 57 -68 48 -68 -1 0 -34 32 -72
72 -39 39 -56 62 -39 50 17 -11 45 -36 63 -54z m-1274 -67 c14 -1 95 -72 95
-83 0 -5 -9 -21 -20 -36 -25 -35 -31 -80 -14 -114 31 -61 118 -73 168 -23 15
16 20 13 70 -42 47 -50 52 -59 38 -67 -27 -16 -172 -10 -221 8 -112 41 -194
148 -215 281 -7 43 34 87 73 80 9 -2 21 -4 26 -4z m-2060 -98 c-25 -27 -67
-77 -92 -113 -25 -36 -50 -69 -56 -75 -11 -12 30 72 46 93 24 30 134 142 141
142 4 0 -14 -21 -39 -47z m1085 18 c51 -10 137 -19 203 -20 l28 -1 -27 -35
c-43 -57 -109 -90 -199 -100 -34 -4 -31 -2 20 14 72 22 119 45 146 72 24 24
24 36 -1 34 -50 -3 -171 17 -211 35 -24 11 -37 19 -29 16 9 -2 40 -9 70 -15z
m179 -377 c-18 -20 -61 -49 -94 -65 -75 -36 -107 -38 -39 -3 28 14 72 43 100
64 62 49 78 51 33 4z m112 -221 c-21 -41 -69 -89 -116 -117 -21 -12 -15 -4 21
31 28 26 63 65 79 86 15 20 29 37 31 37 3 0 -4 -17 -15 -37z m1193 -275 c66
-56 128 -107 136 -114 16 -13 10 -18 180 138 30 28 67 62 82 76 l27 25 48 -97
c26 -53 52 -96 58 -96 5 0 61 29 123 65 l113 64 -6 -37 c-3 -20 -10 -59 -15
-87 -5 -27 -11 -61 -14 -75 -2 -14 -7 -36 -10 -50 -3 -14 -8 -38 -11 -54 -16
-101 -69 -341 -101 -459 -13 -50 -26 -100 -29 -110 -9 -37 -88 -263 -105 -302
-10 -22 -30 -66 -45 -99 -14 -32 -28 -57 -30 -54 -2 2 -6 31 -9 63 -10 112
-57 235 -122 320 -144 189 -277 464 -375 775 -41 130 -39 124 -46 190 -6 52
-5 53 12 37 10 -10 72 -64 139 -119z m-969 70 c-4 -55 -13 -113 -26 -163 -15
-53 -17 -66 -18 -93 -1 -13 -5 -21 -10 -18 -4 3 -2 40 5 82 7 42 16 95 20 118
3 22 8 48 9 56 2 8 4 25 4 38 1 12 5 22 10 22 4 0 7 -19 6 -42z m-1684 -45
c-13 -26 -70 -260 -75 -313 -15 -139 -19 -206 -20 -338 -1 -81 1 -182 4 -225
3 -42 2 -77 -2 -77 -5 0 -8 21 -9 48 0 26 -3 56 -5 67 -8 33 -9 395 -1 455 17
139 47 262 87 356 11 24 22 44 25 44 3 0 2 -8 -4 -17z m1938 -408 c0 -5 -7 3
-15 18 -17 32 -45 163 -36 172 5 5 51 -166 51 -190z m1889 -45 c-4 -36 -10
-76 -13 -90 -3 -14 -7 -34 -9 -45 -7 -39 -38 -136 -41 -133 -2 2 0 21 5 43 10
45 20 98 25 135 2 14 6 36 9 50 6 22 10 65 17 165 2 23 3 20 8 -15 3 -25 3
-74 -1 -110z m-319 -537 c-3 -82 -27 -201 -65 -316 -9 -27 -18 -46 -20 -44 -3
2 0 15 5 29 5 14 12 42 15 62 4 21 8 41 10 45 2 3 7 26 10 51 3 25 8 56 11 69
2 13 7 48 11 79 3 30 8 63 9 71 2 9 4 22 4 29 1 6 4 12 7 12 3 0 4 -39 3 -87z
m20 -633 c-10 -79 -46 -229 -59 -243 -9 -10 -6 5 27 173 13 69 25 133 26 142
1 10 4 14 8 10 4 -4 3 -41 -2 -82z m-572 -137 c-3 -10 -5 -4 -5 12 0 17 2 24
5 18 2 -7 2 -21 0 -30z m-2053 -1666 c13 -51 28 -124 32 -162 7 -71 8 -214 1
-221 -8 -8 -64 164 -72 218 -17 120 -19 164 -15 268 l2 55 14 -33 c8 -17 25
-74 38 -125z m1102 -75 c1 -15 5 -72 8 -126 4 -54 8 -102 11 -106 2 -3 6 -94
10 -201 8 -269 15 -411 20 -429 3 -9 38 -43 77 -76 40 -33 124 -102 186 -153
110 -92 132 -121 117 -158 -20 -52 -27 -264 -12 -348 17 -93 46 -183 88 -273
36 -78 36 -86 3 -41 -68 91 -132 241 -150 349 -4 25 -8 108 -9 185 -1 77 -3
145 -3 152 -1 7 -75 72 -164 144 -90 73 -175 145 -190 161 -35 35 -35 31 -23
373 9 273 14 434 14 519 1 66 13 86 17 28z m-750 -657 c41 -88 52 -156 34
-211 -11 -34 -205 -442 -216 -453 -2 -2 -25 8 -52 22 -26 15 -74 41 -108 59
l-61 31 8 36 c4 20 10 54 13 76 4 22 8 47 11 55 2 8 6 26 9 40 23 123 37 182
46 200 8 16 265 218 278 220 2 0 19 -34 38 -75z m778 -2148 c60 -107 80 -180
79 -283 -1 -39 -8 -73 -21 -97 l-19 -37 0 58 c1 80 -7 132 -43 252 -32 110
-45 170 -36 170 3 0 21 -28 40 -63z"/>
<path d="M3400 8663 c-14 -2 -40 -6 -57 -9 l-33 -5 56 -67 c31 -37 61 -71 65
-76 5 -6 9 27 9 77 0 48 -3 86 -7 86 -5 -1 -19 -3 -33 -6z"/>
</g>
</svg>
