<?xml version="1.0" standalone="no"?>
<!DOCTYPE svg PUBLIC "-//W3C//DTD SVG 20010904//EN"
 "http://www.w3.org/TR/2001/REC-SVG-20010904/DTD/svg10.dtd">
<svg version="1.0" xmlns="http://www.w3.org/2000/svg"
 width="856.000000pt" height="856.000000pt" viewBox="0 0 856.000000 856.000000"
 preserveAspectRatio="xMidYMid meet">
<metadata>
Created by potrace 1.11, written by Peter Selinger 2001-2013
</metadata>
<g transform="translate(0.000000,856.000000) scale(0.100000,-0.100000)"
fill="#000000" stroke="none">
<path d="M4628 8555 c-2 -2 -26 -7 -53 -10 -28 -4 -70 -11 -95 -17 -25 -5 -56
-12 -70 -14 -36 -7 -138 -43 -185 -66 -82 -40 -86 -41 -79 -13 3 14 5 25 3 25
-2 0 -28 -7 -57 -14 -29 -8 -55 -15 -57 -15 -3 -1 -6 -1 -7 -2 -2 0 -10 -2
-18 -4 -8 -1 -41 -8 -72 -14 -32 -7 -61 -13 -65 -13 -5 0 -18 -4 -29 -9 -12
-4 -41 -11 -64 -14 -23 -3 -54 -11 -69 -16 -14 -6 -27 -10 -28 -10 -37 11 -26
-14 12 -28 57 -20 86 -25 155 -25 75 0 148 21 222 65 l52 31 -29 -39 c-86
-113 -144 -141 -281 -138 -45 2 -98 8 -117 14 -19 6 -44 13 -56 16 -44 8 -137
57 -169 88 -18 18 -43 49 -55 70 -11 20 -25 36 -30 34 -5 -1 -11 -25 -12 -52
-2 -28 -6 -88 -10 -135 -4 -47 -8 -105 -10 -130 -1 -25 -3 -53 -4 -62 -1 -13
-21 -3 -88 45 -165 117 -231 140 -325 114 -29 -8 -100 -18 -158 -21 -120 -7
-143 -11 -208 -32 -106 -36 -169 -85 -206 -161 -10 -21 -22 -45 -26 -53 -4 -9
-11 -31 -16 -50 -4 -19 -8 -37 -9 -40 -4 -17 -25 -120 -30 -145 -6 -32 -11
-82 -20 -210 -9 -135 -20 -249 -29 -304 -3 -14 -7 -46 -10 -71 -3 -25 -8 -58
-11 -75 -12 -71 -15 -93 -20 -140 -3 -27 -8 -66 -10 -85 -8 -55 -13 -100 -21
-165 -9 -89 -12 -113 -18 -197 -4 -43 -9 -92 -11 -110 -9 -72 -18 -259 -17
-358 1 -94 4 -141 17 -245 2 -16 6 -48 9 -70 11 -84 16 -121 21 -145 3 -14 8
-41 11 -60 3 -19 7 -44 9 -55 7 -36 46 -146 74 -208 68 -148 142 -303 288
-607 67 -138 111 -235 113 -248 1 -4 5 -11 10 -17 27 -34 111 -272 126 -360 8
-45 10 -184 3 -230 -4 -33 -4 -33 81 -22 87 11 110 19 110 36 0 15 -5 44 -25
156 -3 17 -8 46 -11 65 -2 19 -8 49 -11 65 -3 17 -7 39 -8 50 -7 49 -17 110
-20 115 -2 3 -6 39 -10 80 -4 41 -9 89 -11 105 -21 190 -21 620 1 825 2 25 7
77 11 115 3 39 8 72 9 75 2 3 6 29 10 58 7 64 17 118 45 237 6 28 13 57 15 65
1 8 8 35 15 60 7 25 14 52 15 60 5 21 64 200 75 225 5 11 19 48 31 83 12 34
27 65 32 69 7 4 8 -1 3 -13 -4 -10 -9 -26 -11 -34 -2 -8 -4 -15 -5 -15 -1 0
-3 -7 -5 -15 -2 -8 -20 -71 -39 -140 -36 -124 -88 -354 -101 -440 -4 -25 -8
-52 -10 -60 -2 -8 -6 -40 -10 -70 -4 -30 -8 -66 -11 -80 -2 -14 -6 -52 -10
-85 -3 -33 -8 -71 -10 -85 -28 -172 -21 -826 12 -1070 7 -58 10 -82 18 -155
16 -140 37 -240 54 -255 9 -8 35 -49 56 -90 134 -259 253 -459 277 -468 5 -2
9 -10 9 -17 0 -7 3 -15 8 -17 10 -4 92 -104 92 -112 0 -3 -4 -6 -10 -6 -9 0
-58 -22 -185 -81 -27 -12 -52 -24 -55 -24 -3 -1 -13 -5 -23 -10 -16 -7 -94 19
-242 80 -16 7 -57 23 -90 35 -33 12 -69 26 -80 30 -11 4 -47 18 -80 30 -33 12
-69 26 -80 32 -12 5 -27 10 -35 12 -8 2 -28 8 -45 15 -97 40 -246 60 -282 38
-24 -15 -234 336 -306 513 -41 99 -113 340 -122 407 -2 11 -6 29 -9 40 -9 31
-18 86 -31 188 -3 33 -8 71 -11 85 -2 14 -7 83 -10 155 -8 152 -12 3303 -4
3313 3 4 104 7 224 7 l219 0 13 45 c7 25 24 65 36 89 26 51 131 161 153 161 8
0 15 4 15 9 0 6 -189 10 -490 10 l-491 1 4 -1893 c1 -1040 6 -1903 10 -1917 3
-14 8 -52 11 -85 2 -33 7 -67 10 -75 2 -8 7 -37 10 -65 3 -27 8 -61 11 -75 3
-14 7 -38 9 -55 7 -50 55 -234 89 -335 17 -52 30 -98 29 -102 -1 -5 3 -8 8 -8
6 0 10 -8 10 -18 0 -32 191 -402 212 -410 4 -2 8 -9 8 -16 0 -7 9 -21 20 -31
11 -10 20 -22 20 -28 0 -8 55 -84 70 -97 4 -3 13 -15 22 -28 8 -12 30 -39 49
-60 112 -123 115 -134 44 -240 -36 -56 -72 -122 -80 -152 -1 -3 -4 -12 -8 -20
-33 -85 -53 -354 -28 -384 6 -7 8 -15 6 -18 -17 -17 78 -224 132 -288 30 -36
69 -77 86 -90 17 -13 18 -11 11 46 -15 123 -7 340 18 429 5 22 11 45 12 50 20
99 133 329 244 493 42 63 84 125 92 138 19 31 28 30 40 -1 19 -50 18 -73 -6
-131 -45 -110 -101 -292 -122 -399 -15 -80 0 -277 33 -412 3 -13 7 -33 10 -45
30 -136 100 -212 229 -247 22 -5 43 -8 47 -5 4 2 -8 35 -28 72 -79 147 -136
276 -148 332 -1 3 -6 22 -12 43 -17 55 -8 103 35 187 20 41 39 77 43 80 3 3
31 52 63 110 63 114 180 295 197 306 6 4 14 2 18 -3 3 -6 40 -29 82 -51 84
-47 124 -83 116 -106 -4 -9 -3 -17 2 -20 4 -3 7 -139 7 -303 l-1 -298 -44 -85
c-24 -47 -52 -97 -62 -112 -11 -14 -19 -29 -19 -32 0 -7 -65 -103 -88 -128
-13 -16 -10 -22 10 -19 56 7 201 51 239 73 13 7 47 27 76 45 57 37 75 40 93
18 13 -16 -7 -51 -268 -474 -56 -90 -100 -171 -99 -180 4 -23 27 -64 135 -246
139 -233 196 -309 278 -365 22 -16 49 -28 60 -26 14 2 46 56 120 202 174 345
197 389 206 392 4 2 8 11 8 21 0 9 4 21 9 27 4 5 32 54 61 109 29 55 72 136
95 180 24 44 55 103 69 130 32 63 33 48 2 -41 -53 -155 -213 -508 -251 -554
-7 -8 -31 -50 -55 -93 -23 -44 -61 -113 -86 -154 -24 -41 -44 -77 -44 -80 0
-4 16 15 36 40 20 26 38 47 40 47 2 0 3 -101 3 -224 -1 -139 3 -231 10 -244
12 -22 64 -47 84 -39 7 3 28 45 47 93 18 49 39 103 46 119 13 31 77 196 79
205 1 3 7 19 14 35 6 17 19 49 28 73 30 81 35 29 8 -84 -33 -135 -87 -281
-131 -357 -19 -32 -34 -62 -34 -68 0 -5 -4 -9 -10 -9 -5 0 -14 -9 -20 -20 -10
-18 -3 -24 81 -65 97 -48 109 -51 109 -34 0 21 43 109 50 104 5 -3 9 -32 9
-65 0 -72 9 -84 84 -103 127 -33 243 -1 339 95 51 50 98 110 98 123 0 4 6 13
14 21 8 7 16 19 19 26 5 13 157 -137 157 -154 0 -49 132 148 194 290 43 97 89
255 101 342 3 25 8 61 11 80 12 93 15 133 15 235 1 96 -2 149 -15 278 -3 33 1
33 100 3 154 -48 184 -55 184 -45 0 6 -20 36 -43 67 -91 119 -160 239 -173
300 -4 20 -9 44 -10 52 -5 21 -5 313 0 456 4 140 13 157 101 201 28 14 62 34
77 44 14 11 30 19 35 19 11 0 103 -123 103 -138 0 -6 3 -12 8 -14 7 -3 72 -95
72 -103 0 -2 22 -39 49 -82 120 -194 139 -260 111 -379 -9 -38 -22 -79 -28
-91 -7 -13 -10 -23 -8 -23 3 0 -8 -26 -24 -57 -17 -32 -30 -63 -30 -69 0 -7
-3 -14 -7 -16 -5 -2 -25 -35 -45 -75 -42 -79 -39 -87 28 -67 85 25 147 71 177
130 17 33 43 122 51 174 3 19 7 44 10 55 24 126 28 246 10 330 -8 39 -17 81
-20 95 -9 43 -43 170 -48 178 -3 4 -2 12 2 18 8 10 88 64 96 64 8 0 69 -98
118 -190 48 -90 113 -254 123 -311 3 -19 11 -52 17 -74 14 -49 20 -308 8 -358
-4 -20 -5 -37 0 -37 4 0 27 25 51 56 24 31 49 62 55 68 27 28 96 189 109 255
16 72 21 215 10 261 -3 14 -8 41 -10 60 -6 58 -42 149 -89 224 -40 64 -66 115
-86 171 -4 11 -12 32 -18 46 -9 22 -7 28 14 44 150 112 396 382 521 570 61 91
139 234 183 335 88 201 164 453 186 615 3 17 7 46 11 65 3 19 7 44 8 55 4 60
18 173 23 190 4 11 8 869 9 1908 3 1801 3 1887 -14 1887 -134 3 -588 11 -838
14 -176 3 -325 5 -330 6 -18 4 -35 0 -35 -7 1 -5 25 -35 56 -68 30 -33 78 -99
107 -147 29 -48 59 -90 68 -93 37 -12 127 -17 394 -19 l280 -2 -2 -1520 c-1
-1634 -4 -1858 -28 -2004 -2 -14 -7 -47 -10 -75 -19 -157 -96 -468 -141 -572
-8 -18 -21 -50 -30 -70 -9 -21 -25 -58 -36 -83 -11 -25 -24 -52 -29 -60 -5 -8
-12 -22 -16 -30 -9 -21 -111 -188 -123 -203 -5 -7 -40 -50 -76 -97 -87 -112
-249 -271 -299 -295 -22 -10 -60 -20 -85 -23 -25 -2 -94 -20 -155 -38 -60 -19
-114 -36 -120 -37 -5 -1 -14 -5 -20 -8 -9 -6 -81 -31 -95 -34 -3 -1 -22 -9
-44 -18 -21 -9 -40 -17 -43 -17 -4 0 -46 -19 -163 -73 -36 -17 -67 -31 -70
-32 -3 0 -14 -5 -25 -11 -18 -8 -40 -10 -55 -4 -3 1 -12 3 -20 5 -14 2 -40 13
-168 71 -29 13 -56 32 -59 41 -15 40 -3 296 17 348 5 14 8 25 5 25 -2 0 29 64
69 143 41 78 100 203 131 277 31 74 60 144 65 155 9 22 24 69 22 72 -1 2 5 18
14 38 8 19 14 36 13 37 0 2 2 10 4 18 10 30 47 186 51 212 3 15 12 63 20 105
19 98 22 114 41 243 9 58 18 116 20 130 2 14 7 48 10 75 3 28 7 64 10 80 11
81 15 115 21 175 3 36 7 76 9 90 2 14 7 45 10 70 4 25 9 47 11 49 5 5 -3 -282
-11 -384 -15 -194 -24 -286 -31 -320 -4 -16 -8 -41 -9 -55 -2 -14 -6 -40 -9
-57 -3 -18 -8 -45 -11 -60 -16 -93 -37 -188 -43 -198 -3 -5 -7 -16 -8 -25 -1
-8 -9 -42 -18 -75 -10 -33 -19 -64 -20 -70 -2 -5 -5 -17 -8 -25 -3 -8 -18 -51
-33 -95 -29 -85 -63 -166 -95 -227 -22 -44 -14 -50 15 -11 11 14 25 31 30 37
11 12 174 204 235 276 80 95 138 167 181 225 24 32 51 67 59 76 61 70 160 231
188 304 6 17 25 64 42 105 17 41 43 107 57 145 56 156 124 351 127 360 3 13
46 146 53 165 3 8 7 20 8 25 2 6 13 42 25 80 12 39 30 99 40 135 47 169 61
218 69 250 5 19 14 53 20 75 17 64 69 287 75 325 3 19 8 46 11 60 15 73 37
223 41 280 3 36 9 90 13 120 13 82 6 227 -14 289 -24 78 -70 121 -127 121 -23
0 -60 -5 -82 -11 -21 -6 -46 -12 -55 -14 -9 -2 -24 -6 -33 -10 -13 -5 -19 0
-24 22 -3 15 -10 46 -16 67 -6 25 -6 41 0 45 71 45 154 148 164 204 7 38 1 34
-22 -17 -12 -24 -42 -64 -68 -90 -74 -75 -117 -91 -352 -132 -42 -7 -225 -7
-260 0 -90 19 -131 32 -180 55 -30 14 -58 26 -61 26 -7 0 -41 24 -112 79 -55
43 -123 111 -297 296 -205 219 -224 233 -309 234 -44 1 -71 -6 -118 -30 l-61
-30 20 28 c67 95 198 128 309 79 46 -21 154 -108 283 -231 38 -36 85 -81 106
-100 21 -19 60 -56 87 -81 159 -150 343 -209 638 -205 130 2 158 5 208 25 107
42 210 170 201 249 -12 100 -122 362 -215 514 -153 249 -348 441 -549 543 -86
43 -178 72 -310 100 -9 2 -40 6 -70 10 -30 3 -68 8 -85 11 -38 6 -392 14 -397
9z m563 -169 c39 -5 172 -54 149 -55 -8 0 -42 6 -76 14 -34 8 -72 16 -85 18
-13 3 -44 8 -69 13 l-45 8 40 6 c22 3 43 5 46 3 3 -1 21 -4 40 -7z m-1055
-191 c-49 -47 -93 -85 -97 -85 -4 0 -14 -6 -21 -13 -16 -16 -103 -53 -143 -61
-29 -6 -107 -9 -174 -7 -58 2 -26 13 51 17 93 6 118 9 165 25 39 12 126 64
153 90 33 32 141 119 148 119 4 -1 -33 -39 -82 -85z m688 -16 c111 -38 158
-59 129 -59 -6 0 -56 16 -112 35 -55 19 -106 35 -114 35 -7 0 -22 7 -33 15
-32 24 1 18 130 -26z m496 -87 c36 -14 67 -29 68 -34 2 -4 9 -8 15 -8 7 0 30
-16 52 -36 l40 -36 -35 22 c-19 12 -90 48 -157 81 -68 32 -123 61 -123 64 0 3
17 -2 38 -11 20 -8 66 -27 102 -42z m-2348 -143 c-4 -4 -23 -10 -42 -13 -56
-9 -91 -16 -152 -30 -72 -17 -76 -4 -5 18 92 28 220 44 199 25z m2350 -199
c52 -14 135 -65 150 -93 10 -20 9 -19 -28 3 -22 13 -52 30 -69 39 -16 9 -31
19 -33 24 -2 4 -10 7 -18 7 -7 0 -28 9 -46 21 -18 12 -25 19 -16 16 9 -3 36
-11 60 -17z m534 -30 c36 -31 89 -104 59 -80 -11 8 -24 20 -30 26 -101 107
-109 122 -29 54z m-1184 -96 c33 -19 90 -77 81 -83 -39 -26 -56 -108 -30 -142
34 -44 105 -53 143 -18 11 10 23 19 26 19 3 0 29 -24 57 -52 34 -36 47 -56 40
-63 -11 -11 -170 -13 -207 -2 -41 11 -109 55 -138 89 -31 37 -71 120 -76 158
-2 14 -7 31 -11 38 -5 8 2 23 21 41 29 30 60 35 94 15z m-1987 -86 c-28 -29
-52 -55 -55 -58 -3 -3 -20 -27 -39 -55 -19 -27 -36 -52 -38 -54 -2 -2 -6 -2
-9 1 -8 9 65 117 101 150 91 83 111 91 40 16z m985 31 c66 -19 170 -33 233
-30 20 1 37 -3 37 -8 0 -20 -73 -83 -118 -102 -25 -11 -66 -22 -91 -25 -42 -5
-39 -3 31 21 69 25 151 76 138 88 -3 2 -38 7 -79 11 -82 7 -133 19 -171 41
-30 17 -26 18 20 4z m250 -348 c0 -18 -56 -63 -116 -91 -66 -32 -74 -34 -74
-22 0 4 12 13 28 19 28 12 83 44 92 53 6 7 64 49 68 50 1 0 2 -4 2 -9z m100
-203 c-6 -13 -13 -31 -16 -40 -4 -10 -10 -18 -15 -18 -5 0 -9 -6 -9 -13 0 -7
-12 -21 -27 -32 -14 -11 -31 -25 -37 -31 -12 -12 -51 -34 -60 -34 -3 0 16 19
41 43 64 57 91 87 108 120 19 33 28 36 15 5z m1016 -208 c62 -49 193 -159 218
-182 17 -15 35 -24 42 -20 11 6 56 46 214 190 l45 41 43 -87 c24 -48 47 -91
51 -95 5 -5 26 2 47 15 70 44 177 99 182 94 3 -3 -2 -43 -11 -88 -9 -46 -18
-95 -21 -111 -3 -15 -7 -35 -10 -45 -3 -9 -7 -34 -10 -55 -4 -21 -13 -73 -22
-115 -9 -42 -18 -88 -21 -102 -13 -73 -86 -339 -118 -430 -46 -133 -126 -323
-132 -316 -3 3 -7 24 -9 48 -4 59 -32 164 -57 213 -11 22 -58 96 -105 165 -78
115 -172 294 -233 445 -13 33 -24 62 -25 65 0 3 -6 19 -13 35 -7 17 -31 88
-53 159 -42 136 -57 226 -33 203 7 -6 21 -19 31 -27z m-821 -53 c-3 -34 -16
-105 -30 -157 l-24 -95 5 65 c3 36 7 72 9 80 7 25 26 142 28 167 0 7 4 10 8 7
5 -3 6 -33 4 -67z m-1611 -9 c-9 -24 -17 -50 -19 -58 -2 -8 -12 -42 -21 -75
-40 -148 -49 -250 -49 -572 0 -149 -1 -271 -2 -270 -1 2 -8 70 -18 177 -8 80
-8 356 -1 420 12 108 58 297 84 346 5 10 15 31 21 47 17 44 22 31 5 -15z
m1835 -298 c12 -47 24 -93 27 -102 3 -10 1 -18 -5 -18 -6 0 -11 6 -11 13 0 8
-6 27 -14 43 -14 28 -34 164 -23 154 3 -3 15 -43 26 -90z m1835 15 c3 -8 1
-15 -4 -15 -6 0 -10 7 -10 15 0 8 2 15 4 15 2 0 6 -7 10 -15z m1 -120 c-4 -70
-9 -105 -31 -200 -27 -116 -42 -120 -19 -5 3 14 7 39 10 55 2 17 7 44 10 60 8
40 14 91 15 145 1 34 3 40 10 25 4 -12 6 -48 5 -80z m-310 -558 c-2 -45 -6
-93 -9 -107 -4 -14 -8 -36 -11 -49 -6 -35 -57 -192 -61 -189 -1 2 8 53 21 113
13 61 26 135 30 165 4 30 9 58 10 61 2 3 5 26 6 52 2 25 6 44 10 41 5 -3 6
-42 4 -87z m29 -524 c-2 -21 -6 -58 -8 -83 -2 -25 -5 -45 -6 -45 -1 0 -4 -11
-6 -25 -9 -49 -37 -145 -45 -154 -5 -5 -6 1 -4 15 3 13 7 38 10 54 3 17 10 53
15 80 5 28 11 61 14 75 16 95 22 120 30 120 2 0 1 -17 0 -37z m-2561 -1685 c3
-13 15 -54 26 -93 25 -82 32 -115 36 -172 1 -23 5 -45 7 -50 6 -12 3 -172 -4
-178 -7 -8 -65 176 -74 235 -10 67 -13 280 -4 280 4 0 10 -10 13 -22z m1096
-239 c1 -46 4 -86 6 -89 4 -7 15 -181 21 -340 6 -148 6 -140 4 -165 -1 -11 1
-58 4 -105 7 -98 -12 -75 196 -245 80 -65 153 -127 163 -139 19 -21 19 -31 1
-146 -8 -51 -9 -194 -1 -227 3 -11 9 -43 13 -70 7 -51 35 -132 78 -225 35 -76
33 -82 -8 -25 -40 56 -110 187 -100 187 3 0 2 6 -4 13 -23 27 -44 173 -44 295
1 67 3 126 6 130 8 14 -39 60 -164 159 -128 102 -200 168 -207 191 -10 32 -10
69 12 702 2 41 3 101 4 133 2 87 16 61 20 -34z m-719 -587 c40 -89 45 -145 20
-217 -25 -73 -190 -406 -204 -411 -9 -3 -177 81 -205 102 -2 2 2 32 9 66 7 35
14 73 16 86 2 12 6 32 8 45 7 35 26 130 30 154 7 36 24 60 58 84 18 13 39 29
47 37 8 7 26 21 40 30 14 9 33 23 41 29 35 29 95 72 100 73 3 0 21 -35 40 -78z
m738 -2045 c54 -89 75 -161 76 -258 1 -78 -14 -139 -33 -139 -3 0 -6 35 -7 78
-1 54 -11 110 -33 190 -18 63 -35 125 -37 140 -3 14 -7 29 -10 34 -3 4 -1 8 3
8 5 0 23 -24 41 -53z"/>
<path d="M3217 8280 c-20 -4 -39 -9 -41 -11 -3 -2 18 -29 44 -59 27 -30 50
-58 50 -62 0 -5 4 -8 9 -8 5 0 9 33 9 73 0 81 1 80 -71 67z"/>
</g>
</svg>
