<?xml version="1.0" encoding="utf-8"?>
<!-- Generator: Adobe Illustrator 21.0.0, SVG Export Plug-In . SVG Version: 6.00 Build 0)  -->
<svg version="1.1" id="Layer_1" xmlns="http://www.w3.org/2000/svg" xmlns:xlink="http://www.w3.org/1999/xlink" x="0px" y="0px"
	 viewBox="0 0 588.2 112.7" style="enable-background:new 0 0 588.2 112.7;" xml:space="preserve">
<style type="text/css">
	.st0{fill:#FFFEF1;}
</style>
<g>
	<path class="st0" d="M32.1,109.7c-1.2-0.1-1.4-0.3-1.4-1.5c0-1.5,0-3,0-4.5c0-0.1,0-0.1-0.1-0.4c-0.2,0.4-0.4,0.7-0.6,1
		c-0.1-0.1-0.2-0.2-0.3-0.2c2.1-3.7,4.3-7.3,5.4-11.5c-1.1,2-2.1,3.9-3.2,5.9c-1.2,2.3-2.4,4.6-3.6,6.9c-0.3,0.7-0.7,0.9-1.3,0.3
		c-0.8-0.7-1.6-1.5-2.2-2.4c-1.1-1.6-2-3.3-3-5c-0.2-0.4-0.2-1.1,0.1-1.4c1.3-2.2,2.7-4.4,4.1-6.6c0.2-0.3,0.3-0.6,0.5-0.8
		c0-0.1-0.1-0.2-0.1-0.3c-0.3,0.1-0.7,0.1-0.9,0.3c-1.4,0.9-2.9,1.4-4.6,1.7c0.8-1.2,1.6-2.4,2.2-3.6c0.4-0.8,0.7-1.7,0.7-2.6
		c0.1-2.1,0-4.2,0-6.3c0-0.7-0.2-1.1-0.9-1.4c-0.7-0.3-1.3-0.7-2.1-1.1c-0.6,0.9-1.2,1.8-1.8,2.7c-0.8,1.3-1.6,2.7-2.2,4.1
		c-0.3,0.7-0.4,1.6-0.2,2.3c0.5,1.6,1.3,3.1,2,4.7c0.1,0.3,0.3,0.6,0.5,0.9c-1.8,0-3-0.9-3.6-2.5c-1.5-4.2-0.9-8.3,0.8-12.3
		c0.3-0.7,0.5-1.3-0.2-2.1c-3.5,4.6-6,9.3-4.8,15.6c-1.8-1.5-2.8-3.1-3.2-5.1c-0.6-2.8-0.1-5.4,1.6-7.8c0.5-0.6,0.7-1.2,0-2
		C5,69.4,2.7,63.2,1.6,56.2C1,52.1,0.9,47.9,0.9,43.8c0-12.4,0-24.8,0-37.2c0-0.4,0-0.7,0-1.2c4.3,0,8.5,0,12.8,0
		c-0.4,0.4-0.9,0.6-1.1,1c-0.5,0.8-1.1,1.6-1.4,2.4c-0.2,0.5-0.4,0.7-1,0.7c-1.6,0-3.3,0-5,0c0,0.4,0,0.7,0,1.1
		c0,12.6,0,25.1,0,37.7c0,4.8,0.4,9.5,1.9,14.1c0.9,2.9,2.4,5.5,4.3,7.8c0.1,0.2,0.4,0.3,0.6,0.3c1.1,0.2,2.3,0.2,3.4,0.6
		c2.5,0.9,5,1.9,7.5,2.8c0.4,0.1,0.9,0.1,1.3,0c1-0.4,2-0.9,2.8-1.2c-1.8-3.1-3.7-6.2-5.5-9.1c-0.9,0.2-1.8,0.4-2.7,0.6
		c-0.1-1.3,0.1-2.7-0.3-3.8c-0.9-2.7-2.1-5.4-3.2-8c-1.1-2.5-2.3-5-3.5-7.5c-1.4-2.9-1.8-6.1-1.8-9.3c0.1-4.3,0.6-8.6,1-12.8
		c0.3-3.1,0.7-6.1,1-9.2c0.2-1.2,0.4-2.4,0.7-3.6c0.5-2.2,2.1-3.2,4.2-3.5c1.4-0.2,2.9-0.5,4.3-0.5c0.7,0,1.5,0.3,2.2,0.6
		c0.9,0.4,1.6,1.1,2.6,1.7c0.2-1.7,0.3-3.4,0.5-5.3c1.7,2.9,4.2,3.3,6.9,3.1c1.3-0.1,1.9-1.1,2.5-2.2c-2,0.9-4,1.5-6.3,0.1
		c2.3-0.5,4.3-0.9,6.3-1.4c0.2,0,0.4,0.2,0.7,0.3C39.6,1,43.1,0.7,46.7,1c2.3,0.2,4.5,0.4,6.5,1.5c4,2,6.6,5.3,8.5,9.2
		c0.7,1.4,1.1,2.9,1.7,4.3c0.2,0.7,0.2,1.3-0.4,1.9c-0.7,1.3-1.9,2.1-3.4,2.1c-1.4,0.1-2.8,0.1-4.2,0c-2.2-0.2-4.2-1.1-5.8-2.7
		c-0.5-0.5-1-1-1.5-1.5c-1.2-1.1-2.4-2.2-3.7-3.3c-1.6-1.3-3.6-1.1-4.7,0.5c2-1.2,3.3-0.3,4.6,1c1.1,1.2,2.3,2.4,3.4,3.7
		c2.6,2.9,5.7,4.3,9.6,3.7c1.4-0.2,2.8-0.7,4.1-1.3c0.8-0.4,1.5-1.2,1.5-2.3c0.1,0.3,0.2,0.7,0.1,0.9c-0.3,0.5-0.6,1.1-1,1.5
		c-1,1-1,1-0.5,2.5c0.6-0.1,1.2-0.3,1.8-0.4c1.1-0.2,1.7,0.1,2.1,1.2c0.5,1.3,0.5,2.7,0.4,4.1c-0.4,5.9-2,11.5-3.8,17
		c-1.1,3.4-2.3,6.7-3.5,10c-1,2.9-3.1,5.1-5,7.4c-1.4,1.8-3,3.5-4.6,5.3C52.2,60.9,53,54,53,47c-0.2,1.1-0.3,2.1-0.5,3.2
		c-0.1,1.1-0.2,2.1-0.4,3.2c-0.8,6-2,11.9-5.2,17.1c-1.2,1.9-1,4-0.9,6.1c0,0.2,0.2,0.5,0.4,0.5c0.8,0.4,1.7,0.8,2.6,1
		c0.4,0.1,0.9,0,1.3-0.2c2.4-0.9,4.7-2.3,7.2-2.8c3.7-0.6,5.7-3,7.7-5.7c2.8-3.9,4.5-8.4,5-13.2c0.3-3.2,0.5-6.5,0.5-9.7
		c0.1-12.1,0-24.2,0-36.3c0-0.3,0-0.5,0-0.9c-1.3,0-2.6,0-3.9,0c-1.4,0-2.8-0.1-4.3-0.2c-0.3,0-0.7-0.1-0.8-0.3
		c-0.9-1.3-1.8-2.6-2.6-3.8c5.1,0,10.4,0,15.7,0c0,0.5,0,0.9,0,1.3c0,12.7,0,25.3-0.1,38c0,4.8,0.1,9.6-0.9,14.3
		c-1,5.1-2.8,9.9-6.2,14c-1.6,1.9-3.4,3.6-5.2,5.3c-0.4,0.4-0.5,0.6-0.3,1.1c0.5,0.9,0.9,1.8,1.3,2.6c1.6,3.1,1.7,6.3,0.1,9.4
		c-0.5,0.9-1.2,1.7-1.9,2.5c0.6-4.7-0.9-8.8-3.4-12.6c-1.3,0.5-1.4,0.5-1,1.8c1,3,0.8,6,0,9c-0.4,1.6-1.8,2.6-3.5,2.7
		c0.5-0.9,1-1.8,1.4-2.7c0.4-0.8,0.7-1.6,1-2.4c0.3-1.1,0.3-2.1-0.3-3.1c-1.3-2.1-2.5-4.2-3.8-6.3c-0.9,0.5-1.7,0.8-2.3,1.4
		c-0.4,0.3-0.7,0.9-0.7,1.4c-0.1,2.1,0,4.3,0,6.4c0,1.4,0.7,2.5,1.4,3.6c0.5,0.7,1,1.4,1.7,2.4c-1.4-0.4-2.6-0.7-3.5-1
		c-0.2,2.8-0.2,5.7-0.6,8.5c-0.4,2.9-1.7,5.5-3.5,7.8c-0.7-0.7-1.4-1.4-2.1-2.1c-0.4,0.6-0.8,1.2-1.3,1.8c-1.3,1.5-2.9,2.2-4.9,1.7
		c-0.7-0.2-1.2-0.5-1-1.3c0-0.3,0-0.5-0.2-0.8c-0.2,0.5-0.4,0.9-0.7,1.5C33.7,110.8,32.9,110.3,32.1,109.7c1.8-2,2.4-4.5,2.9-7
		c-0.1,0-0.1-0.1-0.2-0.1C33.9,105,33,107.3,32.1,109.7z M58.4,24.3c-1,0.6-1.9,1.1-2.9,1.7c-0.4-0.8-0.8-1.6-1.2-2.4
		c-1.1,1-2.2,2-3.3,2.9c-1.2-1-2.5-2-3.8-3.1c0,0.4,0,0.5,0,0.7c0,0.1,0,0.3,0,0.4c1.2,3.9,2.5,7.8,5,11.2c0.9,1.3,1.6,2.6,1.7,4.2
		c0,0.2,0.1,0.4,0.2,0.6C55.7,37.7,58.3,28.1,58.4,24.3z M29.3,84.6c0.8-1.5,1.4-3,2.3-4.4c1-1.7,0.7-3.3-0.4-4.8
		c-0.4,0.3-0.8,0.7-1.3,0.9c-1.6,0.9-2.5,2.2-2.8,4.1C26.7,83.3,26.6,83.3,29.3,84.6z M47.1,91.2c0-0.2,0.1-0.3,0-0.3
		c-1-2.4-1.4-4.8-0.8-7.4c0.1-0.3-0.2-0.8-0.5-1.1c-1.1-1-2.2-1.9-3.4-2.8c-0.6-0.5-0.8-1-0.9-1.8c-0.1-2.9-0.3-5.8-0.4-8.8
		c-0.1,0-0.2,0-0.3,0c-0.1,3.2-0.2,6.5-0.2,9.7c0,0.3,0.3,0.7,0.6,1c1.1,0.9,2.2,1.9,3.3,2.7c0.8,0.6,1.2,1.3,1,2.3
		c-0.1,0.3-0.1,0.7-0.1,1C45.4,87.7,45.9,89.5,47.1,91.2z M22.4,32.8c-3.1,8.7-3.3,17.5-1.9,26.5C19.6,50.4,20,41.5,22.4,32.8z
		 M43.9,14c-0.4-0.3-0.8-0.6-1.3-0.8c-0.6-0.3-1.1,0.2-1.1,0.8c0.1,2.6,2.9,4.5,5.5,3.5c-0.4-0.5-0.8-0.9-1.2-1.4
		c-0.7,0.5-1.4,0.8-2.1,0.2C42.8,15.5,43.5,14.8,43.9,14z M26.6,65.6c0,2.2,0.1,4.2,1,6.3C27.8,69.5,27.4,67.2,26.6,65.6z M15.4,26
		c-0.8,1.8-1.2,6.9-0.7,9C14.9,32.1,15.2,28.9,15.4,26z M41.9,107.7c0.6-1.1,0.1-3.8-1-4.8C41.3,104.5,41.6,106.1,41.9,107.7z"/>
	<path class="st0" d="M566.9,78.3c-0.5,0.1-0.8,0.2-1.1,0.2c-5.8,0-11.5,0-17.3,0c-0.6,0-0.9-0.2-1.1-0.8c-0.7-2.3-1.5-4.6-2.3-6.9
		c-0.7-2-1.4-4.1-2.1-6.1c-0.3-0.9-0.6-1.8-1.2-2.7c0,0.2-0.1,0.4-0.1,0.6c0,4.9,0,9.9,0.1,14.8c0,0.9-0.3,1.1-1.1,1.1
		c-5.2,0-10.3,0-15.5,0c-1.1,0-1.2-0.1-1.2-1.2c0-19.6,0-39.2,0-58.8c0-1.5,0-1.5,1.4-1.8c4.1-0.7,8.2-1.2,12.4-1
		c3.4,0.2,6.7,0.6,9.9,1.6c3.5,1,6.8,2.5,9.7,4.8c3,2.4,5.1,5.5,6.2,9.2c0.8,2.7,1.1,5.4,0.8,8.2c-0.3,3.4-1.5,6.6-3.5,9.5
		c-1.2,1.8-2.6,3.3-4.3,4.7c-0.3,0.2-0.4,0.9-0.3,1.2c1,2.4,2.1,4.8,3.2,7.2c1.2,2.6,2.3,5.3,3.5,7.9c1.2,2.6,2.4,5.2,3.6,7.8
		C566.7,77.9,566.8,78,566.9,78.3z M541.8,37.7c0,1.8,0,3.6,0,5.5c0,0.7,0.3,1,0.9,0.9c1.2-0.2,2.2-0.7,3-1.6c1.5-1.8,1.6-3.9,1.4-6
		c-0.2-2.5-1.4-4.3-4-5c-1-0.3-1.2-0.1-1.2,0.9C541.8,34.2,541.8,36,541.8,37.7z"/>
	<path class="st0" d="M415.5,62.7c0,0.4-0.1,0.7-0.1,1.1c0,4.5,0,9,0,13.6c0,0.9-0.3,1.2-1.2,1.2c-5.2,0-10.4,0-15.6,0
		c-0.8,0-1-0.3-1-1.1c0-19.7,0-39.4,0-59.1c0-1.4,0-1.3,1.4-1.6c3.9-0.7,7.8-1.1,11.8-1c3.6,0.1,7.1,0.6,10.5,1.6
		c3.5,1,6.8,2.5,9.6,4.8c2.9,2.3,5,5.3,6.1,8.8c0.9,2.8,1.3,5.7,1,8.6c-0.3,3.2-1.4,6.1-3.1,8.8c-1.3,2-2.8,3.9-4.7,5.4
		c-0.2,0.2-0.4,0.8-0.2,1.1c1,2.3,2,4.6,3.1,6.9c0.9,2,1.8,4,2.7,6c1.3,2.9,2.6,5.8,3.9,8.7c1,2.1,1,2.1-1.3,2.1c-5.3,0-10.6,0-16,0
		c-0.9,0-1.3-0.2-1.6-1.1c-1.4-4.4-2.9-8.9-4.4-13.3c-0.2-0.5-0.3-1-0.5-1.5C415.7,62.6,415.6,62.7,415.5,62.7z M415.3,37.7
		c0,1.8,0,3.6,0,5.5c0,0.8,0.3,1.1,1,0.9c0.8-0.3,1.6-0.5,2.2-1c2.1-1.8,2.3-4.2,2-6.7c-0.3-2.4-1.4-4.3-4.1-4.9
		c-1-0.2-1.1-0.2-1.1,0.9C415.3,34.1,415.3,35.9,415.3,37.7z"/>
	<path class="st0" d="M324.7,63.3c-0.5,0.7-1,1.3-1.5,2c-1.1,1.5-2.1,2.9-3.2,4.4c-0.4,0.6-0.8,0.6-1.2,0c-1.4-2.1-2.9-4.1-4.4-6.2
		c-0.1-0.1-0.2-0.3-0.5-0.6c-0.1,0.4-0.1,0.7-0.1,0.9c0,4.5,0,9,0,13.6c0,0.8-0.2,1.2-1.1,1.1c-5.3,0-10.5,0-15.8,0
		c-0.8,0-1.1-0.2-1.1-1.1c0-19.7,0-39.5,0-59.2c0-1.4,0-1.3,1.4-1.4c1.2-0.1,1.8,0.3,2.5,1.3c4.9,7,9.8,14,14.7,20.9
		c1.6,2.3,3.2,4.5,4.9,6.9c0.3-0.2,0.5-0.4,0.7-0.6c2.4-3.4,4.7-6.7,7.1-10.1c4-5.6,8-11.2,11.8-16.9c0.9-1.3,1.8-1.6,3.1-1.5
		c0.6,0,0.9,0.3,0.9,0.9c0,0.2,0,0.4,0,0.6c0,19.6,0,39.3,0,58.9c0,0.9-0.3,1.2-1.2,1.2c-5.1,0-10.3,0-15.4,0
		c-1.1,0-1.2-0.1-1.2-1.2c0-4.4,0-8.7,0-13.1c0-0.3-0.1-0.6-0.1-0.9C324.9,63.3,324.8,63.3,324.7,63.3z"/>
	<path class="st0" d="M367.8,38.5c0,6.7,0,13.4,0,20c0,1.3,0.4,2.6,0.9,3.8c0.4,1,1.5,0.9,2.3,0.6c0.5-0.2,1.2-0.8,1.3-1.4
		c0.3-1.7,0.6-3.4,0.6-5c0-12.7,0-25.5,0-38.2c0-1.4,0-1.4,1.4-1.4c5.1,0,10.1,0,15.2,0c1.2,0,1.3,0,1.3,1.3c0,10.2,0,20.4,0,30.5
		c0,3.2,0.1,6.3-0.1,9.5c-0.4,5.2-1.4,10.2-4.6,14.6c-2.1,2.9-4.9,4.8-8.3,5.9c-3.7,1.2-7.5,1.3-11.3,0.9c-3.9-0.5-7.5-1.9-10.3-4.7
		c-2.2-2.2-3.7-4.8-4.7-7.8c-1.3-4.2-1.7-8.6-1.7-13c0.1-11.8,0-23.7,0-35.6c0-1.5,0-1.5,1.6-1.5c5,0,10.1,0,15.1,0
		c1.1,0,1.3,0.1,1.3,1.3C367.8,24.9,367.8,31.7,367.8,38.5C367.8,38.5,367.8,38.5,367.8,38.5z"/>
	<path class="st0" d="M443.5,47.8c0-9.8,0-19.6,0-29.3c0-1.5,0-1.5,1.5-1.6c4.4-0.2,8.7-0.3,13.1,0.2c4.3,0.5,8.4,1.6,12.3,3.5
		c6.1,2.9,10.7,7.4,13.3,13.7c2,4.9,2.6,10.1,2.2,15.4c-0.2,2.6-0.5,5.3-1.2,7.8c-1.8,6.6-5.5,12-11.3,15.8c-4.2,2.7-8.8,4.2-13.6,5
		c-1.9,0.3-3.7,0.4-5.6,0.5c-1.6,0.1-3.3,0.2-4.9,0.2c-1.7,0-3.3-0.2-5-0.3c-0.6,0-0.7-0.4-0.7-0.9
		C443.5,67.6,443.5,57.7,443.5,47.8C443.5,47.8,443.5,47.8,443.5,47.8z M461.8,47.2c0,4.4,0,8.8,0,13.2c0,1,0.2,1.1,1.1,0.9
		c0.2-0.1,0.5-0.2,0.7-0.3c1.9-1.1,2.8-3,3.4-4.9c0.6-2.2,1.1-4.5,1.3-6.7c0.4-4.2-0.1-8.3-1.8-12.1c-0.7-1.6-1.6-3.2-3.4-3.8
		c-1.1-0.4-1.2-0.4-1.2,0.9C461.8,38.5,461.8,42.8,461.8,47.2z"/>
	<path class="st0" d="M199,47.7c0-9.8,0-19.5,0-29.3c0-1.5,0.1-1.5,1.5-1.5c8,0,16,0,23.9,0c1.5,0,1.6,0,1.6,1.5c0,4.1,0,8.2,0,12.3
		c0,0.8-0.3,1-1,1c-2.4,0-4.7,0-7.1,0c-0.8,0-1.1,0.2-1.1,1c0.1,2.2,0.1,4.5,0,6.7c0,0.9,0.3,1.1,1.1,1.1c2.3,0,4.6,0,6.9,0
		c0.9,0,1.2,0.2,1.2,1.2c-0.1,3.8,0,7.7,0,11.5c0,1.1-0.1,1.2-1.2,1.2c-2.2,0-4.5,0-6.7,0c-0.9,0-1.2,0.3-1.2,1.1c0,2,0,4.1,0,6.1
		c0,0.8,0.3,1.1,1.1,1c2.3,0,4.5,0,6.8,0c1.1,0,1.2,0.2,1.2,1.2c0,4.5,0,9.1,0,13.6c0,0.7-0.2,1-1,1c-8.4,0-16.7,0-25.1,0
		c-0.8,0-1.1-0.3-1-1.1C199,67.5,199,57.6,199,47.7z"/>
	<path class="st0" d="M491.1,47.7c0-9.8,0-19.6,0-29.3c0-1.6,0-1.6,1.5-1.6c8.1,0,16.1,0,24.2,0c0.9,0,1.2,0.3,1.2,1.2
		c0,4.2,0,8.5,0,12.7c0,0.8-0.3,1-1,1c-2.3,0-4.6,0-7,0c-0.7,0-1,0.2-1,1c0.1,2.3,0,4.6,0,6.9c0,0.7,0.2,0.9,0.9,0.9
		c2.3,0,4.6,0,7,0c0.8,0,1.1,0.2,1.1,1.1c0,3.9,0,7.8,0,11.7c0,0.8-0.2,1.2-1.1,1.1c-2.3,0-4.6,0-6.9,0c-0.7,0-1,0.2-1,0.9
		c0,2.2,0,4.3,0,6.5c0,0.7,0.3,0.9,1,0.9c2.3,0,4.6,0,7,0c0.8,0,1,0.3,1,1c0,4.7,0,9.3,0,14c0,0.8-0.4,0.8-1,0.8
		c-3.9,0-7.8,0-11.7,0c-4.4,0-8.7,0-13.1,0c-0.9,0-1.2-0.3-1.2-1.2C491.1,67.5,491.1,57.6,491.1,47.7z"/>
	<path class="st0" d="M155.5,78.5c-2.4,0-4.8,0-7.1,0c-1,0-1.5-0.3-1.6-1.3c-0.1-0.8-0.5-1-1.3-1c-2,0-4,0-6,0
		c-0.9,0-1.4,0.4-1.5,1.2c-0.1,0.8-0.5,1-1.2,1c-4.9,0-9.9,0-14.8,0c-1,0-1-0.1-0.7-1c1.6-4.8,3.1-9.6,4.7-14.3
		c1.1-3.4,2.1-6.8,3.2-10.2c1.5-4.5,3-9.1,4.5-13.6c1.1-3.3,2.1-6.7,3.2-10c0.9-2.7,1.8-5.4,2.7-8.1c0.4-1.1,0.7-2.3,1.1-3.4
		c0.2-0.6,0.6-0.9,1.2-0.8c2.1,0,2.1,0,2.8,1.9c1,3,1.9,6,2.9,9.1c1.1,3.2,2.2,6.5,3.2,9.7c0.7,2.1,1.3,4.3,2,6.4
		c0.7,2.2,1.4,4.3,2.1,6.5c0.9,2.7,1.7,5.3,2.6,8c0.7,2.2,1.4,4.4,2.1,6.6c0.7,2.1,1.3,4.2,2,6.2c0.6,2,1.3,4.1,2,6.1
		c0.3,1,0.3,1.1-0.8,1.1C160.4,78.5,157.9,78.5,155.5,78.5z M142.4,61c-0.2,0.3-0.3,0.4-0.3,0.5c-0.4,1.4-0.7,2.9-1.1,4.3
		c-0.2,0.9-0.1,1.2,0.9,1.2c0.3,0,0.6,0,0.9,0c1,0,1.2-0.2,0.9-1.2c-0.2-1.1-0.6-2.2-0.9-3.3C142.7,62.1,142.5,61.7,142.4,61z"/>
	<path class="st0" d="M116.6,55.1c0,7.4,0,14.8,0,22.3c0,0.9-0.3,1.2-1.2,1.2c-5.2,0-10.4,0-15.6,0c-0.9,0-1.2-0.2-1.2-1.2
		c0-14.9,0-29.8,0-44.7c0-0.8-0.3-0.9-1-0.9c-2.3,0-4.6,0-6.9,0c-1.2,0-1.2,0-1.2-1.2c0-4.1,0-8.2,0-12.3c0-1.2,0.1-1.3,1.3-1.3
		c11.1,0,22.2,0,33.3,0c1.2,0,1.3,0.1,1.3,1.3c0,4.2,0,8.4,0,12.5c0,0.8-0.3,1-1,1c-2.4,0-4.7,0-7.1,0c-0.7,0-1,0.2-1,0.9
		C116.6,40.1,116.6,47.6,116.6,55.1C116.6,55.1,116.6,55.1,116.6,55.1z"/>
	<path class="st0" d="M167.1,47.7c0-9.7,0-19.5,0-29.2c0-1.6,0-1.6,1.7-1.6c4.9,0,9.9,0,14.8,0c1.3,0,1.5,0.1,1.5,1.4
		c0,14.4,0,28.8,0,43.1c0,1.1,0.1,1.2,1.2,1.2c2.2,0,4.4,0,6.6,0c1.1,0,1.2,0.2,1.2,1.2c0,4.5,0,9,0,13.5c0,1-0.5,1.1-1.2,1.1
		c-7.7,0-15.4,0-23.1,0c-0.6,0-1.2,0-1.8,0c-0.7,0-1-0.3-1-1C167.1,67.6,167.1,57.7,167.1,47.7C167.1,47.7,167.1,47.7,167.1,47.7z"
		/>
	<path class="st0" d="M262.2,14.5c8.9,0,17.8,0,26.7,0c0,0.3,0.1,0.6,0.1,0.9c0,21.3,0,42.5,0,63.8c0,0.9-0.3,1.1-1.1,1.1
		c-8.2,0-16.4,0-24.6,0c-0.9,0-1.1-0.3-1.1-1.1c0-21.3,0-42.5,0-63.8C262.1,15.1,262.1,14.9,262.2,14.5z M266.4,29.3
		c-0.1,0-0.2,0-0.2,0c0.3,1.9,0.5,3.8,1,5.7c0.5,2.1,1.5,4.1,3.3,5.4c4.3,3.2,10.5,1.2,12.3-4.1c1.4-4,1.5-8.1,0.6-12.2
		c-0.4-1.9-1.2-3.7-2.6-5.2c-1.6-1.7-3.7-2.1-6-2.1c-2.8,0-4.8,1.2-6.2,3.4C266.9,23,266.3,26.1,266.4,29.3z M270.2,65.1
		c0,3.7,0,7.4,0,11c0,0.8,0.2,1.1,1,1c1.6,0,3.3,0,4.9,0c0.7,0,1-0.2,1-1c0-1.9,0-3.9,0-5.8c0-2.7,0-2.7,2.7-2.7c0.7,0,1-0.2,1-1
		c0-1.1,0-2.3,0-3.4c0-0.7-0.3-0.9-0.9-0.9c-0.6,0-1.2,0-1.9,0c-0.5,0-0.9-0.2-1-0.8c-0.4-2.6-0.1-3,2.5-3c0,0,0.1,0,0.1,0
		c0.8,0.1,1.2-0.3,1.2-1.1c0-1.1,0-2.2,0-3.2c0-1.2-0.1-1.3-1.2-1.3c-2.7,0-5.4,0-8.2,0c-0.9,0-1.1,0.3-1.1,1.1
		C270.2,57.8,270.2,61.4,270.2,65.1z"/>
	<path class="st0" d="M255.4,59.7c-0.3,7.2-2.7,13.4-7.6,18.6c-2.4,2.5-2.5,2.5-5.4,0.8c-4-2.3-7.9-4.7-11.9-7.1
		c-0.5-0.3-0.6-0.7-0.1-1.1c1.8-1.8,3.2-3.9,4.2-6.3c1.5-3.4,2.1-7,1.2-10.7c-0.6-2.2-1.6-4.2-2.4-6.4c-0.7-2-1.5-4.1-1.9-6.2
		c-0.4-2.5-0.6-5-0.6-7.6c0-3.2,0.8-6.2,2-9.2c0.9-2.3,2.2-4.5,3.9-6.4c1-1.1,2.2-2,3.3-2.9c0.3-0.2,1-0.2,1.4,0
		c4.4,2.6,8.8,5.3,13.2,7.9c0.8,0.5,0.6,0.8,0.1,1.3c-1,1.2-2.2,2.4-3,3.7c-1.4,2.3-1.9,4.9-1.9,7.5c0,3.1,0.7,6.1,1.7,9
		c0.9,2.7,2.1,5.3,2.9,8.1C254.9,55,255.1,57.3,255.4,59.7z"/>
	<path class="st0" d="M362.9,91.2c0,1.8,0,3.7,0,5.5c0,0.8-0.3,1.1-1.2,1.1c-1.9-0.1-3.8,0-5.8,0c-0.8,0-1.1-0.3-1.1-1
		c0-1.1,0-2.2,0-3.2c0.1-0.9-0.5-0.9-1.1-0.9c-0.6,0-1.3-0.1-1.2,0.9c0,1,0,2.1,0,3.2c0,0.8-0.3,1.1-1.1,1.1c-2,0-4,0-5.9,0
		c-0.8,0-1-0.3-1-1.1c0-3.7,0-7.4,0-11.1c0-0.7,0.3-1.1,1.1-1.1c2,0,4,0,5.9,0c0.8,0,1.1,0.4,1.1,1.1c0,1,0,1.9,0,2.9
		c0,0.9,0.5,1,1.2,1c0.7,0,1.2-0.1,1.2-1c0-1,0-2,0-3c0-0.7,0.3-1,1-1c2,0,4,0,6,0c0.8,0,0.9,0.4,0.9,1.1
		C362.9,87.5,362.9,89.4,362.9,91.2z"/>
	<path class="st0" d="M138.3,94.8c0,0.6,0,1.1,0,1.7c0,1.1-0.2,1.3-1.2,1.3c-1.9,0-3.8,0-5.8,0c-0.8,0-1.1-0.3-1.1-1.1
		c0-3.7,0-7.4,0-11c0-1,0.3-1.3,1.3-1.3c3.7-0.1,7.5-0.3,11.2,0.5c1.6,0.4,3.2,0.8,4.5,1.8c1.7,1.3,1.8,2.9,0.2,4.3
		c-0.5,0.5-1.2,0.8-1.8,1.1c-0.7,0.3-0.7,0.6-0.2,1.2c1.1,1.1,2.2,2.2,3.3,3.4c0.2,0.2,0.3,0.6,0.4,0.9c-0.3,0.1-0.6,0.2-0.8,0.2
		c-2.1,0-4.3,0-6.4,0c-0.8,0-1.3-0.3-1.7-1c-0.5-0.7-1-1.4-1.5-2.2C138.5,94.8,138.4,94.8,138.3,94.8z M138.3,89.1
		c0,0.6-0.2,1.2,0.7,1.2c0.7,0,1.6-0.7,1.6-1.2c0-0.6-0.8-1.2-1.6-1.2C138,87.8,138.3,88.6,138.3,89.1z"/>
	<path class="st0" d="M267.8,97.8c-1.2,0-2.3,0-3.5,0c-0.4,0-0.9-0.1-1.3,0c-2.3,0.4-4.2-0.2-5.1-2.6c-0.1-0.3-0.3-0.5-0.5-0.8
		c-0.1,0.1-0.3,0.2-0.4,0.2c0,0.7,0,1.4,0,2.1c0,0.8-0.3,1.1-1.1,1.1c-1.9,0-3.9,0-5.8,0c-0.7,0-1-0.2-1-0.9c0-3.9,0-7.7,0-11.6
		c0-0.6,0.3-1,1-1c3.9-0.1,7.8-0.3,11.6,0.6c1.5,0.4,2.9,1,4.2,1.7c1.7,1,1.8,2.8,0.4,4.1c-0.5,0.5-1.2,0.9-1.9,1.3
		c-0.6,0.3-0.8,0.6-0.3,1.1c1.1,1.1,2.2,2.3,3.3,3.4c0.3,0.3,0.4,0.6,0.7,0.9C268,97.6,267.9,97.7,267.8,97.8z M257.8,90.3
		c0.9,0,1.6-0.6,1.6-1.3c0-0.7-0.8-1.2-1.6-1.2c-1,0-0.6,0.9-0.7,1.4C257,89.8,257,90.3,257.8,90.3z"/>
	<path class="st0" d="M166.3,94.7c0,0.7,0,1.3,0,2c0,0.9-0.3,1.2-1.2,1.2c-1.9,0-3.8,0-5.8,0c-0.8,0-1.1-0.3-1.1-1.1
		c0-3.7,0-7.4,0-11c0-1,0.3-1.3,1.3-1.3c3.7-0.1,7.4-0.3,11.1,0.5c1.6,0.4,3.2,0.8,4.6,1.8c1.6,1.2,1.7,3,0.1,4.3
		c-0.5,0.5-1.2,0.8-1.8,1.1c-0.6,0.3-0.7,0.6-0.2,1.1c1.1,1.1,2.3,2.3,3.4,3.5c0.2,0.2,0.4,0.5,0.6,1c-0.5,0.1-0.8,0.1-1.1,0.1
		c-2.1,0-4.2,0-6.3,0c-0.8,0-1.3-0.3-1.7-1c-0.5-0.8-1-1.5-1.5-2.3C166.5,94.6,166.4,94.6,166.3,94.7z M166.3,89
		c0,1.2,0.1,1.3,0.7,1.3c0.8,0,1.6-0.6,1.7-1.2c0-0.6-0.8-1.3-1.7-1.3C165.9,87.8,166.4,88.6,166.3,89z"/>
	<path class="st0" d="M501.4,93.4c0,0.5,0,1,0,1.5c0.1,3,0.1,3-2.9,3c-1.3,0-2.7,0-4,0c-0.8,0-1.1-0.3-1.1-1c0-3.7,0-7.5,0-11.2
		c0-0.8,0.4-1.1,1.1-1.1c1.9,0,3.9,0,5.8,0c0.8,0,1,0.3,1,1c0,0.6,0,1.2,0,1.8c0,0.3,0.1,0.6,0.3,1c0.4-0.8,0.9-1.6,1.3-2.4
		c0.5-1,1.1-1.5,2.3-1.4c1.9,0.1,3.9,0,5.8,0c0.3,0,0.6,0.2,0.8,0.2c-0.1,0.3-0.1,0.7-0.3,0.9c-1.2,1.5-2.3,3-3.5,4.5
		c-0.4,0.5-0.4,0.9,0,1.3c1.3,1.7,2.7,3.4,4,5.1c0.2,0.3,0.3,0.6,0.4,1c-0.3,0.1-0.6,0.2-0.9,0.2c-2.1,0-4.2,0-6.3,0
		c-0.8,0-1.3-0.3-1.6-1c-0.7-1.2-1.3-2.3-2-3.5C501.6,93.4,501.5,93.4,501.4,93.4z"/>
	<path class="st0" d="M414.9,94.5c-1.6,1.6-3.1,1.7-4.7,0c-0.1,0.1-0.2,0.2-0.2,0.3c0,0.6,0,1.2,0,1.9c0,0.8-0.3,1.3-1.2,1.3
		c-1.9,0-3.8,0-5.8,0c-0.9,0-1.2-0.4-1.2-1.2c0-3.6,0-7.2,0-10.8c0-0.4,0.1-1,0.4-1.1c0.4-0.1,1-0.1,1.4,0.1
		c2.2,1.4,4.4,2.9,6.6,4.4c2.2,1.6,2.1,1.6,4.3,0.2c2.2-1.5,4.3-3,6.5-4.4c0.2-0.1,0.4-0.3,0.6-0.4c1-0.4,1.5-0.1,1.5,1
		c0,3.2,0,6.5,0,9.7c0,0.4,0,0.9,0,1.3c0,0.7-0.3,1.1-1,1.1c-2,0-4,0-6,0c-0.7,0-1-0.3-1-1c0-0.7,0-1.4,0-2.1
		C415,94.6,415,94.6,414.9,94.5z"/>
	<path class="st0" d="M474,98.2c-2.3-0.1-4.4-0.4-6.4-1.3c-4.1-1.8-4.9-6.8-2.2-9.8c1.4-1.6,3.5-2.3,5.6-2.6c3.2-0.4,6.3-0.3,9.3,1
		c2.5,1.1,4.3,4.2,3.6,7c-0.7,2.9-2.7,4.3-5.3,5C477,97.9,475.5,98,474,98.2z M472.1,91.1c0.1,0.7,0.1,1.4,0.3,2.1
		c0.2,0.6,0.5,1.2,1.3,1.2c0.8,0,1.3-0.4,1.5-1.1c0.5-1.4,0.5-2.8,0-4.2c-0.3-0.7-0.6-1.2-1.5-1.2c-0.8,0-1.2,0.5-1.4,1.2
		C472.3,89.8,472.2,90.5,472.1,91.1z"/>
	<path class="st0" d="M118.1,98.1c-3.1,0.1-5.9-0.3-8.2-2.3c-1.7-1.5-2.3-3.5-1.9-5.7c0.6-3.1,2.7-4.5,5.6-5.2
		c3.1-0.8,6.2-0.8,9.2,0.1c3.8,1.1,6,4,4.9,8.2c-0.5,1.8-1.8,3-3.5,3.8C122.2,97.8,120.1,98.2,118.1,98.1z M119.8,91.2
		c-0.1-0.7-0.2-1.4-0.4-2c-0.2-0.7-0.6-1.1-1.4-1.2c-0.8,0-1.2,0.4-1.5,1c-0.5,1.4-0.6,2.8,0,4.2c0.3,0.7,0.7,1.2,1.5,1.1
		c0.8,0,1.2-0.5,1.4-1.2C119.6,92.5,119.7,91.8,119.8,91.2z"/>
	<path class="st0" d="M213,91.2c0-1.9,0-3.7,0-5.6c0-0.9,0.3-1.3,1.2-1.2c3.3,0.2,6.5,0.3,9.8,0.7c2.1,0.3,4.1,1,5.9,2.1
		c3,2,3,5.8,0,7.9c-1.8,1.3-3.9,2-6.1,2.3c-2.8,0.4-5.6,0.4-8.4,0.6c-0.2,0-0.3,0-0.5,0c-1.8-0.1-1.9-0.1-1.9-1.9
		C213,94.4,213,92.8,213,91.2z M221.2,91.1C221.2,91.1,221.1,91.1,221.2,91.1c0,0.6,0,1.3,0,1.9c0,0.9,0.3,1.1,1.1,0.8
		c1-0.4,1.9-1.7,1.8-2.9c-0.1-1.3-1.2-2.6-2.3-2.7c-0.2,0-0.6,0.4-0.6,0.6C221.1,89.6,221.2,90.3,221.2,91.1z"/>
	<path class="st0" d="M299.1,88.9c0.6-0.8,1.1-1.4,1.5-2c0.5-0.7,0.8-0.6,1.3,0c0.2,0.3,0.4,0.5,0.6,0.8c0.2,0.3,0.5,0.6,0.9,1
		c0.4-0.8,0.9-1.4,1.2-2.1c0.5-1.7,1.5-2.4,3.4-2.2c1.7,0.2,3.3,0,5,0c0.3,0,0.6,0.1,1,0.2c-0.1,0.4-0.1,0.8-0.3,1.1
		c-1.2,1.9-2.5,3.8-3.7,5.8c-1.1,1.8-2.3,3.6-3.4,5.4c-0.7,1.1-1.7,1.1-2.5,0.1c-0.8-1-1.6-2.1-2.3-3.2c-0.4-0.7-0.7-0.5-1.1,0
		c-0.7,1-1.5,2.1-2.2,3.1c-0.9,1.2-1.7,1.2-2.5-0.1c-1.4-2.2-2.8-4.5-4.3-6.7c-0.9-1.5-1.9-3-2.8-4.4c-0.2-0.3-0.3-0.6-0.2-0.9
		c0-0.1,0.5-0.2,0.8-0.2c2.1,0,4.3,0,6.4,0c0.7,0,1.1,0.2,1.4,0.8C297.9,86.5,298.5,87.6,299.1,88.9z"/>
	<path class="st0" d="M426.2,91.2c0-1.8,0-3.6,0-5.4c0-1.1,0.2-1.2,1.2-1.2c3.2,0,6.5,0,9.7,0c0.7,0,1,0.3,1,1
		c0.2,2.4,0.1,2.4-2.2,2.4c-0.3,0-0.7-0.1-1,0c-0.3,0.1-0.7,0.5-0.7,0.7c0.1,0.3,0.4,0.8,0.7,0.8c0.7,0.1,1.5,0,2.2,0
		c0.6,0,1,0.2,1,0.9c0.1,2.2,0.1,2.2-2.2,2.2c-0.3,0-0.7,0-1,0c-0.6,0-0.8,0.3-0.8,0.9c0,0.6,0.3,0.8,0.8,0.8c0.8,0,1.5,0,2.3,0
		c0.6,0,0.8,0.2,0.8,0.8c0,3,0.2,2.6-2.5,2.6c-2.8,0-5.5,0-8.3,0c-1.1,0-1.3-0.2-1.3-1.3C426.2,94.8,426.2,93,426.2,91.2z"/>
	<path class="st0" d="M178.9,91.1c0-1.7,0-3.5,0-5.2c0-1.2,0.2-1.4,1.3-1.4c3.2,0,6.3,0,9.5,0c1.1,0,1.3,0.2,1.3,1.3
		c0,2.1,0,2.1-2,2.1c-0.4,0-0.7,0-1.1,0c-0.5,0-0.9,0.1-0.9,0.8c0,0.6,0.3,0.9,0.9,0.8c0.7-0.1,1.4,0,2.1,0c0.6,0,0.9,0.3,1,1
		c0,2.2,0,2.2-2.2,2.2c-0.3,0-0.6,0-0.9,0c-0.7,0-0.9,0.2-0.9,0.9c0,0.7,0.3,0.8,0.9,0.8c0.7,0,1.5,0,2.2,0c0.6,0,0.9,0.2,0.9,0.9
		c-0.1,2.7,0.3,2.6-2.6,2.6c-2.7,0-5.4,0-8.2,0c-1.2,0-1.4-0.2-1.4-1.3C178.9,94.7,178.9,92.9,178.9,91.1z"/>
	<path class="st0" d="M234.3,91.1c0-1.8,0-3.6,0-5.5c0-0.8,0.3-1.1,1.2-1.1c3.2,0,6.5,0,9.7,0c0.8,0,1.1,0.3,1.1,1.1
		c0,2.9,0.1,2.3-2.2,2.3c-0.3,0-0.7-0.1-1,0c-0.3,0.1-0.7,0.4-0.7,0.7c-0.1,0.5,0.1,0.9,0.8,0.9c0.8,0,1.6,0,2.4,0
		c0.5,0,0.8,0.2,0.8,0.8c0,0,0,0.1,0,0.1c0,2.8,0.1,2.2-2.2,2.3c-0.3,0-0.7,0-1,0c-0.6,0-0.8,0.3-0.9,0.9c0,0.6,0.3,0.8,0.8,0.8
		c0.8,0,1.6,0,2.4,0c0.5,0,0.8,0.2,0.8,0.8c0.2,2.7,0.2,2.7-2.5,2.7c-2.7,0-5.4,0-8.2,0c-1.2,0-1.3-0.1-1.3-1.3
		C234.3,94.7,234.3,92.9,234.3,91.1z"/>
	<path class="st0" d="M207.7,97.9c-2.4-0.2-4.9-0.7-7.2-0.4c-2.4,0.3-4.7,0.2-7.1,0.3c-0.3,0-0.6-0.1-0.8-0.2
		c0.1-0.3,0.1-0.7,0.3-0.9c2.6-3.8,5.2-7.6,7.9-11.4c0.7-1,1.7-1,2.4,0c2.6,3.8,5.2,7.6,7.8,11.4c0.2,0.2,0.2,0.6,0.3,0.9
		c-0.3,0.1-0.6,0.2-0.9,0.2C209.4,97.8,208.5,97.8,207.7,97.9C207.7,97.8,207.7,97.9,207.7,97.9z"/>
	<path class="st0" d="M380.5,84.5c2.3,0,4.6,0,6.9,0c0.8,0,1.1,0.3,1.1,1.1c0,2.7,0.1,2.3-2.2,2.3c-1.7,0-1.7,0-1.7,1.8
		c0,2.3,0,4.5,0,6.8c0,1.2-0.2,1.4-1.3,1.4c-1.8,0-3.6,0-5.4,0c-1.3,0-1.4-0.1-1.4-1.4c0-2.5,0-5.1,0-7.6c0-0.7-0.2-1-1-1
		c-0.7,0-1.4,0-2.1,0c-0.6,0-0.9-0.3-0.9-0.9c-0.2-2.3-0.1-2.4,2.3-2.4C376.7,84.5,378.6,84.5,380.5,84.5
		C380.5,84.5,380.5,84.5,380.5,84.5z"/>
	<path class="st0" d="M334.2,84.5c2.3,0,4.6,0,7,0c0.7,0,1,0.3,1,1c0.1,2.4,0.1,2.4-2.3,2.4c-0.2,0-0.3,0-0.5,0
		c-1.2,0-1.3,0-1.3,1.2c0,2.5,0,4.9,0,7.4c0,1.1-0.2,1.2-1.2,1.2c-1.9,0-3.8,0-5.7,0c-0.8,0-1.1-0.3-1.1-1.1c0-2.6,0-5.3,0-7.9
		c0-0.7-0.2-1-0.9-1c-0.8,0.1-1.5,0-2.3,0c-0.5,0-0.8-0.2-0.8-0.8c0-0.1,0-0.1,0-0.2c-0.1-2.4-0.1-2.4,2.2-2.4
		C330.3,84.5,332.3,84.5,334.2,84.5C334.2,84.5,334.2,84.5,334.2,84.5z"/>
	<path class="st0" d="M455.6,84.5c2.3,0,4.6,0,6.9,0c0.8,0,1.1,0.3,1.1,1.1c0,2.9,0.1,2.3-2.2,2.3c-1.8,0-1.8,0-1.8,1.7
		c0,2.3,0,4.6,0,7c0,1.1-0.2,1.2-1.2,1.2c-1.9,0-3.7,0-5.6,0c-0.9,0-1.2-0.3-1.2-1.2c0-2.6,0-5.1,0-7.7c0-0.8-0.2-1.1-1-1.1
		c-0.7,0.1-1.5,0-2.2,0c-0.5,0-0.8-0.3-0.8-0.8c0-0.1,0-0.1,0-0.2c-0.1-2.4-0.1-2.4,2.2-2.4C451.7,84.5,453.6,84.5,455.6,84.5
		C455.6,84.5,455.6,84.5,455.6,84.5z"/>
	<path class="st0" d="M94,91.2c0-1.9,0-3.7,0-5.6c0-0.8,0.2-1.2,1.1-1.1c3.3,0,6.6,0,9.8,0c0.7,0,1,0.2,1,0.9
		c0.1,2.4,0.2,2.4-2.3,2.4c-0.3,0-0.7-0.1-1,0c-0.3,0.1-0.6,0.4-0.7,0.7c-0.1,0.5,0.2,0.8,0.7,0.8c0.8,0,1.5,0,2.3,0
		c0.7,0,1,0.2,1,0.9c0,2.8,0.1,2.2-2.2,2.3c-1.8,0-1.8,0-1.8,1.9c0,0.7,0,1.5,0,2.2c0,0.8-0.3,1.1-1.1,1.1c-1.9,0-3.9,0-5.8,0
		c-0.8,0-1-0.3-1-1C94,94.9,94,93.1,94,91.2z"/>
	<path class="st0" d="M540,91.2c0-1.8,0-3.5,0-5.3c0-1.1,0.2-1.3,1.3-1.3c1.8,0,3.6,0,5.5,0c1.2,0,1.3,0.1,1.3,1.4c0,2.5,0,5,0,7.5
		c0,0.7,0.2,0.9,0.9,0.9c0.7,0,1.5,0,2.2,0c0.6,0,0.9,0.3,0.9,0.9c0.1,2.5,0.1,2.5-2.4,2.5c-2.8,0-5.5,0-8.3,0
		c-1.3,0-1.4-0.2-1.4-1.5C540,94.6,540,92.9,540,91.2z"/>
	<path class="st0" d="M525.6,91.2c0-1.8,0-3.6,0-5.5c0-0.8,0.3-1.2,1.1-1.2c1.9,0,3.8,0,5.8,0c0.9,0,1.2,0.3,1.2,1.2
		c0,2.5,0,5.1,0,7.6c0,0.8,0.3,1,1,1c0.7,0,1.4,0,2.1,0c0.6,0,0.8,0.2,0.8,0.8c0,3,0.2,2.6-2.5,2.6c-2.8,0-5.5,0-8.3,0
		c-1.2,0-1.3-0.1-1.3-1.3C525.6,94.7,525.6,92.9,525.6,91.2z"/>
	<path class="st0" d="M274,84.2c1.1,0.3,2.2,0.6,3.3,0.9c0.6,0.2,1.3,0.3,1.9,0.5c0.2,0.1,0.5,0.3,0.6,0.5c0,0.2-0.2,0.5-0.4,0.6
		c-1.7,0.8-1.6,2.5-0.8,3.7c0.4,0.6,0.8,1.2,1.2,1.7c1.1,1.6,0.3,3.3-1.3,4.6c-1.5,1.2-3,1.7-5,0.8c-1-0.5-2.2-0.6-3.3-0.9
		c-0.3-0.1-0.5-0.4-0.8-0.6c0.2-0.2,0.4-0.4,0.6-0.6c1.4-1,2.5-2.2,0.6-4.4c-0.3-0.4-0.7-0.8-0.9-1.3c-0.6-1.2-0.3-2.4,0.5-3.4
		C271.3,85.2,272.5,84.5,274,84.2z"/>
	<path class="st0" d="M522.7,91.2c0,1.8,0,3.6,0,5.4c0,1.1-0.2,1.2-1.2,1.2c-1.9,0-3.8,0-5.7,0c-0.9,0-1.2-0.4-1.2-1.2
		c0-3.6,0-7.2,0-10.9c0-0.9,0.4-1.2,1.2-1.2c1.9,0,3.7,0,5.6,0c1.2,0,1.3,0.2,1.3,1.4C522.7,87.7,522.7,89.4,522.7,91.2z"/>
	<path class="st0" d="M398.9,91.2c0,1.8,0,3.6,0,5.4c0,1.1-0.2,1.2-1.2,1.2c-1.9,0-3.8,0-5.7,0c-0.9,0-1.2-0.4-1.2-1.2
		c0-3.6,0-7.2,0-10.9c0-0.9,0.4-1.2,1.2-1.2c1.9,0,3.7,0,5.6,0c1.1,0,1.3,0.2,1.3,1.3C398.9,87.6,398.9,89.4,398.9,91.2
		C398.9,91.2,398.9,91.2,398.9,91.2z"/>
	<path class="st0" d="M323.8,91.2c0,1.8,0,3.6,0,5.5c0,0.8-0.2,1.2-1.2,1.2c-1.9-0.1-3.8,0-5.7,0c-0.8,0-1.1-0.3-1.1-1
		c0-3.7,0-7.5,0-11.2c0-0.7,0.3-1.1,1.1-1.1c2,0,4,0,5.9,0c0.8,0,1,0.3,1,1C323.8,87.4,323.8,89.3,323.8,91.2z"/>
	<path class="st0" d="M559.2,93.2c0.1,0.1,0.1,0.2,0.2,0.2c1.6,0.4,1.6,0.4,1.6,2.2c0,2.3,0,2.3-2.3,2.3c-1,0-2,0-3.1,0
		c-0.9,0-1.2-0.4-1.1-1.2c0-0.6,0-1.2,0-1.9c0-1.2,0.1-1.3,1.3-1.4c0.1,0,0.3-0.1,0.6-0.1c-0.2-0.6-0.4-1.2-0.6-1.7
		c-0.7-1.8-1.4-3.7-2.1-5.5c-0.5-1.3-0.3-1.5,1.1-1.5c2.2,0,4.4,0,6.6,0c1,0,1.2,0.2,0.8,1.1c-0.9,2.3-1.7,4.6-2.6,6.8
		C559.3,92.7,559.2,93,559.2,93.2z"/>
	<path class="st0" d="M24.8,6.6c-0.6-0.7-1-1.3-1.5-1.9c0.6-0.1,1-0.2,1.5-0.2C24.8,5.1,24.8,5.7,24.8,6.6z"/>
	<path class="st0" d="M277,29.3c-0.2,1.5-0.3,3.1-0.5,4.6c-0.1,0.8-0.4,1.7-1.3,1.7c-1,0-1.1-1-1.3-1.8c-0.6-3-0.6-6,0-8.9
		c0.2-0.8,0.3-1.7,1.2-1.7c1,0,1.2,0.9,1.4,1.7C276.7,26.3,276.9,27.8,277,29.3z"/>
</g>
</svg>
