<?xml version="1.0" encoding="utf-8"?>
<!-- Generator: Adobe Illustrator 22.0.1, SVG Export Plug-In . SVG Version: 6.00 Build 0)  -->
<svg version="1.1" id="Layer_1" xmlns="http://www.w3.org/2000/svg" xmlns:xlink="http://www.w3.org/1999/xlink" x="0px" y="0px"
	 viewBox="0 0 337.6 63.7" style="enable-background:new 0 0 337.6 63.7;" xml:space="preserve">
<style type="text/css">
	.st0{fill:#FFFFF1;}
	.st1{font-family:'Blakely-Black';}
	.st2{font-size:50.8px;}
	.st3{letter-spacing:1;}
	.st4{font-size:22px;glyph-orientation-vertical:0;writing-mode:tb;}
	.st5{letter-spacing:-2;}
	.st6{fill:#FFFFF0;}
</style>
<g>
	<text transform="matrix(1 0 0 1 51.1083 48.2116)" class="st0 st1 st2 st3">TALES</text>
	<text transform="matrix(1 0 0 1 174.0791 48.212)" class="st0 st1 st2 st3">murder</text>
	<g>
		<rect x="154.7" y="9.9" width="17.3" height="40.7"/>
		<text transform="matrix(1 0 0 1 163.4126 9.4514)" class="st0 st1 st4 st5">of</text>
	</g>
</g>
<path class="st6" d="M20,1.2c0.5-0.2,1-0.5,1.5-0.7c0.7-0.2,1.5-0.4,2.3-0.4c0.7-0.1,1.5-0.1,2.3,0c1.8,0.1,3.5,0.4,5,1.5
	c1.2,0.9,2.2,2,3,3.2c0.7,1.1,1.2,2.2,1.6,3.4c0.1,0.3,0.2,0.6,0.2,0.9c-0.1,0.3-0.3,0.6-0.4,0.8c-0.5,0.7-1.3,1-2.1,1
	c-1.2,0-2.3,0-3.4-0.4c-0.7-0.3-1.3-0.7-1.9-1.2c-1-0.9-1.9-1.8-2.9-2.6c-0.5-0.4-1.2-0.7-1.9-0.5c-0.5,0.1-0.9,0.5-1.2,1
	c0.2-0.1,0.4-0.2,0.6-0.3c0.6-0.3,1.2-0.3,1.8,0.2c0.4,0.4,0.8,0.8,1.2,1.3c0.8,0.8,1.6,1.8,2.5,2.5c1.3,1,2.8,1.2,4.4,1
	c0.4-0.1,0.8-0.1,1.2-0.2c1.1-0.2,1.7-0.9,2.1-1.8c0.1,0.4-0.4,1.3-1.3,1.8c0.1,0.3,0.2,0.7,0.2,1c0.4-0.1,0.8-0.2,1.2-0.3
	c0.6-0.1,1,0.3,1.1,0.7c0.2,0.7,0.3,1.3,0.2,2c-0.1,0.5-0.1,1-0.1,1.6c-0.1,1-0.3,1.9-0.5,2.9c-0.7,2.9-1.5,5.9-2.6,8.7
	c-0.4,1.2-0.8,2.3-1.4,3.5c-0.4,0.8-1,1.5-1.5,2.3c-0.7,1-1.5,1.9-2.3,2.9c-0.4,0.5-0.8,1-1.3,1.5c2-4.1,2.4-8.4,2.4-12.8
	c-0.1,0.7-0.1,1.5-0.2,2.2c-0.1,1.2-0.3,2.3-0.4,3.4c-0.3,1.8-0.6,3.6-1.2,5.3c-0.3,0.8-0.7,1.7-1,2.5c-0.3,0.7-0.8,1.4-1,2.1
	c-0.2,0.7-0.1,1.6-0.1,2.3c0,0.2,0.1,0.4,0.4,0.4c0.4,0.1,0.8,0.3,1.2,0.5c0.2,0.1,0.4,0.1,0.7,0c1.6-0.8,3.3-1.5,5.1-1.9
	c0.1,0,0.1,0,0.2,0c0.7,0,1.1-0.4,1.6-0.8c1.5-1.4,2.6-3,3.4-4.9c0.6-1.3,1-2.7,1.2-4.2c0.2-1.2,0.4-2.5,0.4-3.7
	c0-0.8,0.1-1.6,0.1-2.4c0-7,0-14,0-21c0-0.1,0-0.3,0-0.5c-0.2,0-0.4,0-0.5,0c-0.8,0-1.6,0-2.5,0c-0.6,0-1.3,0-1.9-0.1
	c-0.1,0-0.3-0.1-0.3-0.2c-0.4-0.8-0.9-1.5-1.5-2.1c0,0,0,0,0-0.1c3,0.1,6.1,0.1,9.1,0.1c0,0.1,0,0.3,0,0.4c0,8.7,0,17.4,0,26
	c0,1.1-0.2,2.3-0.3,3.4c-0.1,1.4-0.5,2.8-1,4.2c-0.6,1.7-1.5,3.3-2.6,4.7c-0.6,0.7-1.2,1.4-1.9,2.1c-0.4,0.4-0.9,0.8-1.3,1.2
	c0.2,0.6,0.4,1.2,0.8,1.7c0.5,0.7,0.7,1.5,0.8,2.4c0.1,1.1-0.1,2.1-0.6,3.1c-0.3,0.6-0.7,1-1.2,1.5c0.5-2.7-0.4-5.1-1.9-7.3
	c-0.3,0.1-0.5,0.3-0.8,0.5c0.2,0.8,0.4,1.5,0.6,2.3c0.1,0.4,0.1,0.9,0,1.3c-0.1,0.8-0.2,1.5-0.4,2.3c-0.2,0.9-1,1.4-2,1.5
	c0.2-0.4,0.4-0.8,0.6-1.2c0.4-0.7,0.7-1.5,0.8-2.3c0-0.3,0-0.6-0.1-0.9c-0.2-0.6-2-3.6-2.5-4.1c-0.3,0.2-0.7,0.4-1,0.6
	c-0.5,0.2-0.6,0.6-0.6,1c0,0.4,0,0.7,0,1.1c0,0.3-0.1,0.6-0.1,0.8c0.1,0.9-0.1,1.9,0.3,2.7c0.3,0.6,0.7,1.2,1.1,1.7
	c0.1,0.2,0.3,0.4,0.4,0.5c0,0,0,0.1-0.1,0.1c-0.7-0.2-1.4-0.4-2.1-0.6c0.1,0.7,0.1,1.5,0.1,2.3c-0.1,2-0.4,3.9-1.3,5.7
	c-0.3,0.5-0.6,1-1,1.5c-0.4-0.5-0.8-0.9-1.2-1.3c-0.4,0.7-0.9,1.5-1.7,1.9c-0.8,0.4-1.6,0.3-2.5-0.1c0-0.3,0-0.7,0-1
	c-0.1,0-0.1,0-0.1,0c-0.1,0.3-0.2,0.6-0.4,0.9c-0.5-0.2-1-0.4-1.4-0.7c1-1.3,1.4-2.9,1.7-4.4c-0.1,0-0.1,0-0.1-0.1
	c-0.5,1.4-1.1,2.8-1.6,4.2c-0.1,0-0.2,0-0.4-0.1c-0.3-0.1-0.4-0.3-0.4-0.6c0-1,0-2,0-3.2c-0.3,0.4-0.5,0.6-0.7,0.9
	c1.4-2.4,2.9-4.9,3.7-7.6c-0.7,1.3-1.4,2.7-2.1,4c-0.7,1.4-1.5,2.8-2.1,4.2c-0.1,0.3-0.3,0.3-0.5,0.1c-0.7-0.4-1.1-1.1-1.6-1.7
	c-0.6-0.9-1.1-1.8-1.6-2.7c-0.1-0.2-0.1-0.4,0-0.5c0.9-1.5,1.8-2.9,2.7-4.4c0,0,0-0.1,0-0.1c-0.2-0.3-0.4-0.2-0.7,0
	c-0.7,0.5-1.4,0.7-2.2,0.9c-0.1,0-0.2,0.1-0.4,0.1c0.2-0.3,0.4-0.5,0.5-0.7c0.4-0.6,0.7-1.2,1.1-1.9c0.1-0.2,0.1-0.5,0.1-0.8
	c0-0.9,0-1.7,0-2.6c0-0.5,0-1-0.1-1.4c0-0.2-0.1-0.4-0.4-0.6c-0.4-0.2-0.8-0.5-1.3-0.7c-0.3,0.5-0.7,1-1,1.5
	c-0.5,0.8-0.9,1.6-1.4,2.4c-0.3,0.5-0.3,1-0.1,1.5c0.3,1.1,0.9,2.1,1.4,3.1c-0.9,0-1.8-0.5-2-1.5c-0.2-0.7-0.3-1.5-0.4-2.2
	C7.5,46.3,8,45,8.4,43.7c0.1-0.4,0.4-0.7,0.4-1.1c0-0.2-0.1-0.5-0.2-0.7c-1,1.3-1.8,2.7-2.4,4.2c-0.6,1.5-0.7,3.1-0.4,4.8
	c-0.7-0.6-1.1-1.2-1.5-2c-0.4-0.8-0.5-1.7-0.4-2.5c0.1-1,0.3-1.9,0.9-2.7c0.1-0.1,0.2-0.3,0.3-0.4c0.2-0.3,0.2-0.6-0.1-0.9
	c-1-1-1.8-2.2-2.5-3.4c-0.9-1.6-1.5-3.3-1.9-5.1c-0.2-0.8-0.3-1.6-0.4-2.4c-0.3-2-0.2-4-0.2-6c0-7.5,0-15,0-22.5c0-0.1,0-0.3,0-0.5
	c2.5,0,4.9,0,7.4,0C6.5,3,5.9,3.8,5.7,4.8c-1.1,0-2.2,0-3.3,0c0,0.1,0,0.3,0,0.4c0,7.7,0,15.5,0,23.2c0,2.1,0.3,4.2,0.9,6.2
	c0.6,1.8,1.4,3.5,2.6,5c0,0,0.1,0.1,0.1,0.2c0.7-0.3,1.3-0.1,1.9,0.1c1.6,0.6,3.2,1.2,4.8,1.8c0.1,0,0.2,0.1,0.3,0.1
	c0.7-0.3,1.4-0.7,2.1-1c-0.5-0.7-1-1.2-1.5-1.9c-0.6-1-1.1-2-1.7-3.1c-0.1-0.1-0.2-0.2-0.3-0.4c-1-6.3-0.9-12.5,1.1-18.6
	c0,0-0.1,0-0.1,0c-0.3,0.9-0.7,1.8-1,2.7c-0.5,1.7-0.8,3.5-1,5.3c-0.1,1.7-0.2,3.5-0.1,5.2c0.1,1.8,0.5,3.5,0.8,5.3
	c0,0.2,0,0.3-0.2,0.3c-0.4,0.1-0.8,0.1-1.2,0.2c0.4-1.8-0.3-3.2-0.9-4.7c-0.7-1.7-1.6-3.3-2.3-4.9c-0.5-1.1-1.1-2.2-1.3-3.4
	c-0.2-1-0.3-2-0.4-3c-0.1-0.8-0.1-1.5,0-2.3c0.1-1,0.2-2,0.3-3.1c0.1-0.8,0.2-1.7,0.3-2.5c0.1-0.8,0.2-1.7,0.4-2.5
	C6,9,6,8.4,6.1,7.9c0-1,0.2-2,0.4-3c0.2-0.8,0.6-1.4,1.2-1.7C8.2,3,8.7,2.8,9.1,2.8c0.5-0.1,1.1-0.1,1.6-0.1c0.1,0,0.1,0,0.2,0
	c0.7-0.4,1.4-0.1,2,0.3c0.4,0.3,0.9,0.6,1.3,0.9c0.1-1,0.1-2,0.2-3c0,0,0.1,0,0.1,0c0.4,1.1,1.4,1.4,2.4,1.6
	c0.6,0.1,1.2,0.1,1.8-0.1c0.1-0.1,0.3-0.1,0.4-0.3c0.2-0.2,0.4-0.5,0.7-0.8C19.8,1.3,19.9,1.2,20,1.2z M28.6,14.6
	c-0.7-0.6-1.4-1.2-2.2-1.8c0,0.3,0,0.5,0.1,0.7c0.2,0.8,0.4,1.5,0.7,2.3c0.6,1.5,1.2,2.9,2.2,4.2c0.4,0.5,0.7,1.1,0.9,1.8
	c0.1,0.4,0.1,0.7,0.1,1.1c1.5-3,2-6.3,2.6-9.6c-0.7,0.4-1.2,0.7-1.8,1c-0.2-0.5-0.4-0.9-0.7-1.4C29.9,13.4,29.2,14,28.6,14.6z
	 M16.2,48c0.5-1,1-1.9,1.4-2.9c0.2-0.4,0.4-0.9,0.2-1.4c-0.1-0.4-0.3-0.7-0.5-1.1c-0.7,0.5-1.2,0.9-1.8,1.4
	c-0.2,0.1-0.3,0.3-0.3,0.5c-0.1,0.9-0.3,1.7-0.5,2.6C15.1,47.4,15.6,47.6,16.2,48z M22.9,38.2C22.8,38.2,22.8,38.2,22.9,38.2
	c-0.1,1.5-0.2,3.1-0.2,4.6c0,0.6-0.1,1.2,0,1.8c0,0.1,0.1,0.4,0.2,0.5c0.8,0.7,1.6,1.3,2.3,1.9c0.1,0.1,0.2,0.2,0.2,0.4
	c0,0.6-0.1,1.2,0,1.7c0.1,1.3,0.6,2.4,1.4,3.4c0-0.1-0.1-0.2-0.1-0.3c-0.8-1.5-1.1-3.1-0.7-4.8c0.1-0.3,0-0.4-0.2-0.6
	c-0.8-0.7-1.6-1.3-2.4-2c-0.1-0.1-0.1-0.2-0.1-0.3c-0.1-1.4-0.1-2.8-0.1-4.2C22.9,39.6,22.9,38.9,22.9,38.2L22.9,38.2z M25.6,8.6
	c-0.4,0.4-0.8,0.5-1.2,0.2c-0.4-0.3-0.3-0.8,0.1-1.3c-0.1-0.1-0.3-0.3-0.5-0.4C24.1,7,24,6.9,23.9,6.9c-0.4-0.2-0.8,0.1-0.8,0.4
	c0.3,1.9,1.8,2.6,3.3,2.1C26.1,9.2,25.9,8.9,25.6,8.6z M14.6,36.8c-0.1,1.4,0,2.8,0.6,4.1C15.4,39.4,15.2,38.1,14.6,36.8z
	 M23.3,61.5c0.8-0.9,0.1-2.8-0.6-3.6C22.9,59.1,23.5,60.2,23.3,61.5z M8.8,12.9c-1.4,2.6-1.1,5.3-0.9,8c0-0.2,0-0.4,0-0.6
	c0-0.9-0.1-1.7-0.1-2.6c0-0.9,0.1-1.8,0.2-2.6C8.2,14.4,8.5,13.7,8.8,12.9z M18.3,7.7c-0.4,0.4-0.6,0.6-1.8,0.9c1,0,1.7-0.4,2.1-1
	c-0.9,0-1.7,0-2.5-0.4C16.7,7.7,17.5,7.7,18.3,7.7z M20.6,2.1C20.6,2.1,20.6,2.1,20.6,2.1c-0.2,0.1-0.4,0.2-0.6,0.4
	c-0.7,0.6-1.3,1.2-2.2,1.3c-0.6,0.1-1.1,0.1-1.6,0.1c0,0,0.1,0,0.1,0c1.1,0.2,2.1,0.1,3-0.6C19.8,2.9,20.2,2.5,20.6,2.1z M33.5,19.7
	c-0.1,0.7-0.2,1.4-0.3,2c-0.1,0.7-0.3,1.4-0.4,2C33.2,22.5,33.8,21.2,33.5,19.7z M35.7,15.1c0.3,1.4-0.2,2.7-0.4,4
	C35.7,17.8,36.2,16.4,35.7,15.1z M33.2,27.2c0.4-1,0.7-2,0.6-3.1C33.6,25.1,33.4,26.1,33.2,27.2z M9.8,7.1c-1,0.4-1.4,1.3-1.9,2.2
	C8.5,8.5,8.9,7.7,9.8,7.1z M27.6,3c0.8,0.6,1.8,0.8,2.6,1.5C29.5,3.6,28.5,3.4,27.6,3z M30,6.9c-0.5-0.9-1.6-0.8-2.3-1.3
	c0.4,0.3,0.8,0.4,1.2,0.7C29.3,6.4,29.7,6.6,30,6.9z M20.1,15.2C20.1,15.2,20.2,15.2,20.1,15.2c0.2-0.9,0.6-1.7,0.4-2.6
	C20.4,13.5,20.2,14.4,20.1,15.2z M29.2,1.8c-0.8-0.4-1.6-0.7-2.4-0.5C27.6,1.4,28.4,1.6,29.2,1.8z M9.3,5c0.8-0.2,1.5-0.3,2.3-0.5
	C10.8,4.5,10,4.5,9.3,5z M19.2,11.1c-0.3,0.7-0.9,1.2-1.5,1.7C18.5,12.5,19.1,12,19.2,11.1z M16.7,10.9c0.8-0.1,1.6-0.6,1.8-1.1
	c-0.3,0.2-0.5,0.4-0.8,0.6C17.3,10.6,17,10.7,16.7,10.9z M24.1,2.5c0,0,0,0.1-0.1,0.1c0.7,0.2,1.3,0.4,2,0.7c0,0,0-0.1,0-0.1
	C25.4,2.9,24.8,2.7,24.1,2.5z M22.5,16.7c-0.2-0.7-0.3-1.3-0.5-1.9C22,15.5,22.1,16.1,22.5,16.7z M32.1,5.8c0.4,0.4,0.8,0.9,1.2,1.3
	C33.1,6.4,32.6,6.1,32.1,5.8z M20,1.2c-0.1,0.1-0.1,0.1-0.2,0.2c-0.1,0-0.2,0.1-0.3,0.1c-0.9,0.6-2.1,0.7-3.1,0.1
	c1.3-0.3,2.6-0.6,3.8-0.9C20.1,0.9,20,1,20,1.2z M13.7,2c0,0.4,0,0.7,0,1.2c-0.3-0.4-0.6-0.7-0.9-1.1C13.1,2.1,13.4,2,13.7,2z"/>
</svg>
